<?xml version="1.0" standalone="no"?>
<!DOCTYPE svg PUBLIC "-//W3C//DTD SVG 1.1//EN" "http://www.w3.org/Graphics/SVG/1.1/DTD/svg11.dtd">
<svg xmlns="http://www.w3.org/2000/svg">
<metadata>Generated by Fontastic.me</metadata>
<defs>
<font id="tavisca-product-suite" horiz-adv-x="512">
<font-face font-family="tavisca-product-suite" units-per-em="512" ascent="480" descent="-32"/>
<missing-glyph horiz-adv-x="512" />

<glyph glyph-name="question" unicode="&#99;" d="M311 153l0-68c0-3-1-6-4-8-2-3-5-4-8-4l-68 0c-3 0-6 1-8 4-2 2-4 5-4 8l0 68c0 3 2 6 4 8 2 2 5 4 8 4l68 0c3 0 6-2 8-4 3-2 4-5 4-8z m90 172c0-11-1-20-4-29-3-9-7-17-10-22-4-6-9-11-16-17-7-6-12-10-16-13-5-2-10-6-18-10-8-4-14-10-19-18-6-8-8-15-8-19 0-4-1-7-4-10-2-3-5-4-8-4l-68 0c-3 0-6 2-8 5-2 4-3 7-3 11l0 13c0 16 7 30 19 44 12 14 26 25 41 31 11 6 19 11 24 16 5 6 7 13 7 22 0 8-4 15-13 21-9 6-19 9-31 9-12 0-23-2-31-8-7-5-17-16-30-33-3-3-6-4-9-4-3 0-5 0-7 2l-47 36c-3 2-4 4-5 7 0 3 0 5 2 8 30 51 75 76 132 76 16 0 31-3 46-9 16-6 30-14 42-24 13-10 23-22 30-36 8-15 12-30 12-45z"/>
<glyph glyph-name="question-circle" unicode="&#100;" d="M256 480c124 0 224-100 224-224 0-124-100-224-224-224-124 0-224 100-224 224 0 124 100 224 224 224z m20-327c1 18-12 31-29 31-16 0-30-11-30-29 0-18 12-30 28-30 17 0 31 10 31 28z m49 128c7 10 12 22 12 36 0 23-9 40-25 52-17 13-37 18-62 18-19 0-34-4-47-13-19-13-28-34-28-68l49 0c0 9-1 19 4 27 5 8 13 15 26 15 13 0 19-3 25-11 5-7 8-15 8-23 0-7-4-14-8-20-2-4-6-7-10-10 0 0-26-15-35-30-7-11-9-24-10-41 0-1 0-4 4-4l39 0c0 0 5 3 5 4 0 6 1 15 2 19 2 7 6 12 12 17l14 9c12 9 21 17 25 23z"/>
<glyph glyph-name="arrow-down-type-2" unicode="&#103;" d="M254 47l255 251-60 33-195-192-194 192-60-33z"/>
<glyph glyph-name="arrow-down-type-3-1" unicode="&#104;" d="M256 37l-211 194 0 48 211-193 211 193 0-48z m-211 339l0 48 211-193 211 193 0-48-211-194z"/>
<glyph glyph-name="arrow-left-type-1" unicode="&#105;" d="M256 512c-141 0-256-115-256-256 0-141 115-256 256-256 141 0 256 115 256 256 0 141-115 256-256 256z m0-480c-124 0-224 101-224 224 0 123 100 224 224 224 124 0 224-101 224-224 0-123-100-224-224-224z m128 193l-159 0c-18 0-22-11-10-23l45-45c13-13 15-31 4-42-10-10-29-9-42 4l-110 110c-13 12-13 33 0 45l110 111c13 12 32 14 42 3 11-10 9-29-4-42l-45-45c-12-12-8-23 10-23l159 0c18 0 32-12 32-26 0-15-14-27-32-27z"/>
<glyph glyph-name="arrow-right-type-2" unicode="&#106;" d="M399 254l-250 255-34-60 192-195-192-194 34-60z"/>
<glyph glyph-name="arrow-up-down" unicode="&#107;" d="M90 208l333 0-167-208z m-1 96l333 0-166 208z"/>
<glyph glyph-name="cross-big" unicode="&#108;" d="M512 469l-43 43-213-213-213 213-43-43 213-213-213-213 43-43 213 213 213-213 43 43-213 213z"/>
<glyph glyph-name="cross-type-2" unicode="&#109;" d="M256 512c-141 0-256-114-256-256 0-141 115-256 256-256 142 0 256 115 256 256 0 142-114 256-256 256z m128-328l-56-56-72 72-72-72-56 56 72 72-72 72 56 56 72-71 72 71 56-56-71-72z"/>
<glyph glyph-name="dashboard" unicode="&#110;" d="M369 285l86 0 0-253-86 0z m-52 102l-117-123-56 27-144-118 0 73 140 116 57-28 111 119 84-38 33 33-27 29 114 19-19-111-24 30-65-65z m-289-270l86 0 0-85-86 0z m114 56l85 0 0-141-85 0z m114 56l85 0 0-197-85 0z"/>
<glyph glyph-name="error" unicode="&#111;" d="M509 80l-238 421c-8 15-21 15-29 0l-238-421c-8-14-1-26 15-26l475 0c16 0 23 12 15 26z m-223 33l-59 0 0 59 59 0z m0 118l-59 0 0 178 59 0z"/>
<glyph glyph-name="info" unicode="&#112;" d="M434 438c-100 99-260 99-360 0-99-99-99-260 0-360 100-99 260-99 360 0 99 100 99 261 0 360z m-180 9c30 0 55-24 55-54 0-31-25-56-55-56-30 0-55 25-55 56 0 30 24 54 55 54z m68-352c0-9-5-13-14-13l-108 0c-9 0-13 4-13 13l0 27c0 9 4 14 13 14l20 0 0 116-21 0c-8 0-13 5-13 13l0 28c0 9 5 13 13 13l76 0c9 0 13-4 13-13l0-158 20 0c9 0 14-4 14-13z"/>
<glyph glyph-name="info-type1" unicode="&#113;" d="M264 357c42 0 76 34 76 77 0 42-34 76-76 76-43 0-77-34-77-76 0-43 34-77 77-77z m76-282l-28 0 0 220c0 12-6 18-19 18l-105 0c-13 0-19-6-19-18l0-39c0-12 6-18 19-18l28 0 0-163-28 0c-12 0-18-6-18-18l0-39c0-12 6-18 18-18l152 0c12 0 18 6 18 18l0 39c0 12-6 18-18 18z"/>
<glyph glyph-name="pencil" unicode="&#114;" d="M500 356l-3-2 0-1-45-45-140 142 45 45 0-1 3 4c12 12 33 12 46-1l93-95c13-13 14-33 1-46z m-378-188l211 212 47-47-211-212 23-24 211 213 24-24-235-236-140 142 234 235 23-23-210-212z m47-142l-82-12-82-11 12 82 12 83z"/>
<glyph glyph-name="plus-sign" unicode="&#115;" d="M507 287l-226 0 0 225-56 0 0-225-225 0 0-56 225 0 0-226 56 0 0 226 226 0z"/>
<glyph glyph-name="reports" unicode="&#116;" d="M347 483l109-114-109 0z m7 29l-260 0 0-513 406 0 0 362z m120-486l-354 0 0 465 201 0 0-148 153 0c0 0 0-317 0-317z m-294 358l128 0 0-22-128 0z m0-86l235 0 0-21-235 0z m0-85l235 0 0-21-235 0z m0-86l235 0 0-21-235 0z"/>
<glyph glyph-name="search" unicode="&#117;" d="M507 74l-87 87c22 35 35 76 35 120 0 122-99 222-222 222-122 0-222-100-222-222 0-123 100-222 222-222 44 0 85 13 120 35l87-88c6-6 16-6 22 0l45 45c7 6 7 17 0 23z m-274 48c-87 0-158 71-158 159 0 87 71 158 158 158 88 0 159-71 159-158 0-88-71-159-159-159z"/>
<glyph glyph-name="swap-1" unicode="&#118;" d="M136 5c4-3 9-5 15-5 14 0 25 11 25 24l0 37 311 0c14 0 25 11 25 24l0 85c0 13-11 24-25 24l-311 0 0 37c0 13-11 24-25 24-6 0-11-2-15-5l-127-101c-12-12-12-31 0-43z m240 257c-4-3-10-5-15-5-14 0-25 11-25 24l0 37-311 0c-14 0-25 11-25 24l0 85c0 13 11 24 25 24l311 0 0 37c0 13 11 24 25 24 5 0 11-2 15-5l127-101c12-12 12-31 0-43z"/>
<glyph glyph-name="swap-2" unicode="&#119;" d="M123 305l102 0 0 97-225 40 0-352 225 41 0 96-102 0z m164 97l0-97-62 0 0-78 62 0 0-96 225-41 0 352z m196-278l-168 30 0 73 50 0 0-33 86 72-86 72 0-33-50 0 0 73 168 30z"/>
<glyph glyph-name="export" unicode="&#121;" d="M484 263l28 0 0-57-28 0z m-29 0l29 0 0-57-29 0z m0 29l29 0 0-29-29 0z m-28 0l28 0 0-29-28 0z m0 28l28 0 0-28-28 0z m-29-28l29 0 0-29-29 0z m0 28l29 0 0-28-29 0z m0 29l29 0 0-29-29 0z m57-143l29 0 0-28-29 0z m-28 0l28 0 0-28-28 0z m0-28l28 0 0-28-28 0z m-29 28l29 0 0-28-29 0z m0-28l29 0 0-28-29 0z m0-28l29 0 0-29-29 0z m-256 113l313 0 0-57-313 0z m114-113l0-57-199 0 0 284 199 0 0-57 57 0 0 114-313 0 0-398 313 0 0 114z"/>
<glyph glyph-name="swap-3" unicode="&#122;" d="M512 512l-353 0 0-159-159 0 0-353 353 0 0 159 159 0z m-67-287l-92 0 0 128-128 0 0 92 220 0z"/>
<glyph glyph-name="bell" unicode="&#65;" d="M512 119c0 0-76 39-76 118 0 71-1 208-115 232 0 1 0 2 0 4 0 21-17 39-38 39-21 0-38-18-38-39 0-2 1-3 1-4-115-24-115-161-115-232 0-79-76-118-76-118l0-39 161 0c-1-4-1-7-1-11 0-38 30-69 68-69 38 0 69 31 69 69 0 4-1 7-1 11l161 0z m-227-101c-23 0-42 19-42 42 0 7 2 13 5 19-1-2-1-4-1-6 0-27 20-50 47-54-3-1-6-1-9-1z"/>
<glyph glyph-name="arrow-left-type-2" unicode="&#66;" d="M214 256l167-174c4-4 4-12 0-16l-30-31c-4-4-12-4-16 0l-204 213c-2 2-3 5-3 8 0 3 1 6 3 8l204 213c4 4 12 3 16-1l30-30c4-4 4-12 0-16z"/>
<glyph glyph-name="arrow-right-type-3" unicode="&#69;" d="M160 384l32 32 160-160-160-160-32 32 127 128z"/>
<glyph glyph-name="arrow-right-type-3-1" unicode="&#70;" d="M449 249l-193 210-48 0 193-210-193-211 48 0z m-338 210l-48 0 193-210-193-211 48 0 193 211z"/>
<glyph glyph-name="arrow-left-type-3-1" unicode="&#71;" d="M63 249l193 210 48 0-193-210 193-211-48 0z m338 210l48 0-193-210 193-211-48 0-193 211z"/>
<glyph glyph-name="arrow-left-type-4" unicode="&#72;" d="M293 450l49 0-194-210 194-211-49 0-193 211z"/>
<glyph glyph-name="arrow-right-type-4" unicode="&#73;" d="M193 450l-48 0 193-210-193-211 48 0 193 211z"/>
<glyph glyph-name="calendar" unicode="&#74;" d="M140 0l241 0c52 0 95 43 95 95l0 241c0 41-26 75-61 89l0-27c0-2-1-5-1-7 0-6-2-11-4-16-9-21-30-36-54-36-28 0-51 19-57 45-1 3-1 5-1 7-1 2-1 5-1 7l0 33-73 0 0-33c0-2 0-5-1-7 0-2 0-4-1-7-6-26-29-45-57-45-24 0-45 15-54 36-2 5-4 10-4 16-1 2-1 5-1 7l0 27c-36-14-61-48-61-89l0-241c0-52 42-95 95-95z m-48 251l337 0 0-156c0-26-22-48-48-48l-241 0c-27 0-48 22-48 48z m54 133c4-6 11-10 19-10 8 0 15 4 19 10 2 2 3 5 3 7 1 2 1 4 1 7l0 76c0 13-10 24-23 24-13 0-24-11-24-24l0-76c0-3 1-5 2-7 0-2 1-5 3-7z m191 0c4-6 11-10 19-10 8 0 15 4 19 10 2 2 3 5 3 7 1 2 1 4 1 7l0 76c0 13-10 24-23 24-13 0-24-11-24-24l0-76c0-3 1-5 2-7 0-2 1-5 3-7z m-222-159l75 0 0-64-75 0z m0-89l75 0 0-64-75 0z m108 89l75 0 0-64-75 0z m0-89l75 0 0-64-75 0z m109 89l75 0 0-64-75 0z m0-89l75 0 0-64-75 0z"/>
<glyph glyph-name="filter" unicode="&#75;" d="M461 398c0 18-14 32-32 33l-343 0c0 0-1 0-2 0-18 0-33-15-33-33 0-11 5-20 13-26l154-154 0-96c0-7 4-12 9-15l40-23c0 0 1 0 1-1 3-1 6-2 9-2 10 0 17 8 17 17 0 1 0 1 0 2l0 118 156 155c7 6 11 15 11 25z m-296-33z"/>
<glyph glyph-name="filter-1" unicode="&#77;" d="M18 501l159-254 0-247 127 63 0 184 18 29 116 184 25 41z m223-429l-32-9 0 187-127 219 95 0 64-219z"/>
<glyph glyph-name="trash-bin" unicode="&#79;" d="M341 384l91 0 0-32-9 0c0 0-5-1-8-4-3-3-4-9-4-9l-19-241c-2-29-2-34-36-34l-200 0c-34 0-34 5-36 34l-19 242c0 0-1 6-4 9-3 3-8 3-8 3l-9 0 0 32 91 0 0 29c0 19 14 35 34 35l101 0c20 0 35-16 35-35z m-149 29l0-29 128 0 0 29c0 10-9 15-19 15l-91 0c-10 0-18-5-18-15z m-8-285l20 0-10 192-21 0z m83 0l0 192-22 0 0-192z m62 0l10 192-20 0-11-192z"/>
<glyph glyph-name="gear" unicode="&#80;" d="M448 218l-44 0c-4-14-10-27-17-39l32-32-54-54-33 32c-12-7-24-11-38-15l0-46-76 0 0 46c-13 4-26 8-38 15l-33-32-54 54 32 32c-7 12-13 25-17 39l-44 0 0 76 43 0c4 14 9 29 16 41l-30 30 54 54 29-29c13 8 27 13 42 17l0 41 76 0 0-41c15-4 29-9 42-17l29 29 54-54-30-30c7-12 13-27 16-41l43 0z m-192-16c30 0 54 24 54 54 0 30-24 54-54 54-30 0-54-24-54-54 0-30 24-54 54-54z"/>
<glyph glyph-name="photo-picture" unicode="&#81;" d="M368 288c-26 0-48 22-48 48 0 26 22 48 48 48 26 0 48-22 48-48 0-26-22-48-48-48z m84 160c16 0 28-12 28-28l0-328c0-16-12-28-28-28l-392 0c-16 0-28 12-28 28l0 328c0 16 12 28 28 28z m-103-198l99-106 0 260c0 7-6 12-13 12l-358 0c-7 0-12-5-13-12l0-260 126 152c4 4 10 8 17 8 7 0 13-2 17-7l54-59 4-4c3-2 7-4 11-4 4 0 8 2 12 5l18 16c4 3 8 5 13 5 5 0 10-2 13-6z"/>
<glyph glyph-name="youtube-two" unicode="&#82;" d="M37 404l0-333 438 0 0 333z m53-54l332 0 0-225-332 0z m117-39l0-150 129 75z"/>
<glyph glyph-name="trash" unicode="&#83;" d="M488 353l-440 0c-9 0-16 7-16 16l0 32c0 8 7 16 16 16l110 0 0 17c0 1 0 5 0 14 0 32 0 64 63 64 62 0 62 0 94 0 31 0 63 0 63-64l0-31 110 0c8 0 16-8 16-16l0-32c-1-9-8-16-16-16z m-173 95l-94 0 0-31 94 0z m-157-130l0-236c0-8 7-15 15-15 9 0 16 7 16 15l0 239 64 0-1-3 0-236c0-8 7-15 16-15 8 0 15 7 15 15l0 239 64 0-1-3 0-236c0-8 7-15 16-15 9 0 16 7 16 15l0 236-1 3 64 0 0-302c0-9-7-16-16-16l-314 0c-9 0-16 7-16 16l0 302 63 0z"/>
<glyph glyph-name="check-mark-2" unicode="&#84;" d="M421 246l0-91c0-22-8-42-25-58-16-16-35-24-58-24l-237 0c-23 0-42 8-59 24-16 16-24 36-24 58l0 238c0 23 8 42 24 58 17 16 36 24 59 24l237 0c12 0 23-2 34-7 3-1 4-3 5-6 0-4 0-6-3-9l-14-14c-2-1-4-2-6-2-1 0-2 0-3 0-4 1-9 2-13 2l-237 0c-13 0-24-5-33-14-9-9-13-19-13-32l0-238c0-12 4-23 13-32 9-9 20-13 33-13l237 0c13 0 24 4 33 13 9 9 13 20 13 32l0 73c0 2 1 5 3 6l18 19c2 1 4 2 6 2 2 0 3 0 4 0 4-2 6-5 6-9z m66 140l-233-233c-5-4-10-6-16-6-7 0-12 2-17 6l-122 123c-5 5-7 10-7 17 0 6 2 11 7 16l31 31c5 5 10 7 16 7 7 0 12-2 17-7l75-75 185 185c4 5 10 7 16 7 6 0 12-2 16-7l32-31c4-5 6-10 6-17 0-6-2-11-6-16z"/>
<glyph glyph-name="document" unicode="&#85;" d="M374 458l0-41 42 0z m-9 54l-338 0 0-509 443 0 0 404z m73-477l-379 0 0 445 284 0 0-95 95 0z m-350 354l199 0 0-32-199 0z m-1-64l200 0 0-32-200 0z m130-63l157 0 0-32-157 0z m-127 0l100 0 0-160-100 0z m127-64l157 0 0-32-157 0z m0-64l157 0 0-31-157 0z"/>
<glyph glyph-name="vertical-lines" unicode="&#86;" d="M14 463l498 0 0-77-498 0z m0-154l498 0 0-76-498 0z m0-153l498 0 0-76-498 0z"/>
<glyph glyph-name="resize" unicode="&#87;" d="M398 512l0-370-369 0 0-113 483 0 0 483z"/>
<glyph glyph-name="move-arrow" unicode="&#88;" d="M512 245l-106 78 0-53-114 0 0 113 54 0-79 106-78-104 52 0 0-115-112 0 0 53-106-78 104-79 0 52 114 0 0-113-52 0 78-105 79 106-54 0 0 112 115 0 0-52z"/>
<glyph glyph-name="duplicate" unicode="&#89;" d="M511 460l-399 0 0-96-112 0 0-342 398 0 0 95 113 0z m-146-404l-331 0 0 275 331 0z m112 95l-80 0 0 214-251 0 0 61 331 0z"/>
<glyph glyph-name="map-marker-1" unicode="&#90;" d="M243 505c-103 0-188-84-188-188 0-125 188-312 188-312 0 0 188 187 188 312 0 104-84 188-188 188z m0-313c-69 0-125 56-125 125 0 69 56 125 125 125 70 0 126-56 126-125 0-69-56-125-126-125z"/>
<glyph glyph-name="form" unicode="&#48;" d="M0 509l0-509 509 0 0 509z m478-477l-446 0 0 446 446 0-1-128z m-48 382l-350 0c-9 0-16-7-16-16l0-16c0-9 7-16 16-16l350 0c9 0 16 7 16 16l0 16c0 9-7 16-16 16z m-350-143l127 0c9 0 16 7 16 15l0 16c0 9-7 16-16 16l-127 0c-9 0-16-7-16-16l0-16c0-8 7-15 16-15z m270-144l-191 0c-9 0-16-7-16-16l0-15c0-9 7-16 16-16l191 0c9 0 16 7 16 16l0 15c0 9-7 16-16 16z m64 191l-127 0c-9 0-16-7-16-16l0-15c0-9 7-16 16-16l127 0c9 0 16 7 16 16l0 15c0 9-7 16-16 16z m-191-127l0 16c0 9-7 16-16 16l-127 0c-9 0-16-7-16-16l0-16c0-9 7-16 16-16l127 0c9 0 16 7 16 16z m191 32l-127 0c-9 0-16-7-16-16l0-16c0-9 7-16 16-16l127 0c9 0 16 7 16 16l0 16c0 9-7 16-16 16z"/>
<glyph glyph-name="booking" unicode="&#49;" d="M4 507l0-504 504 0 0 504z m32-473l0 315 440 0 1-315z m440 331l-440 0 0 110 441 0z m-393-110l142 0c8 0 15 7 15 15l0 16c0 9-7 16-15 16l-142 0c-9 0-16-7-16-16l0-16c0-8 7-15 16-15z m346-32l-346 0c-9 0-16-7-16-16l0-15c0-9 7-16 16-16l346 0c9 0 16 7 16 16l0 15c0 9-7 16-16 16z m-346 173l63 0c8 0 16 8 16 16l0 16c0 9-8 16-16 16l-63 0c-9 0-16-7-16-16l0-16c0-8 7-16 16-16z m142 0l63 0c8 0 15 8 15 16l0 16c0 9-7 16-15 16l-63 0c-9 0-16-7-16-16l0-16c0-8 7-16 16-16z m141 0l63 0c9 0 16 8 16 16l0 16c0 9-7 16-16 16l-63 0c-8 0-15-7-15-16l0-16c0-8 7-16 15-16z m63-94l-141 0c-9 0-16-7-16-16l0-16c0-8 7-15 16-15l141 0c9 0 16 7 16 15l0 16c0 9-7 16-16 16z m0-158l-346 0c-9 0-16-7-16-15l0-16c0-9 7-16 16-16l346 0c9 0 16 7 16 16l0 16c0 8-7 15-16 15z"/>
<glyph glyph-name="carausal" unicode="&#50;" d="M5 507l0-503 503 0 0 503z m472-472l-441 0 0 441 441 0z m-284 71c0 13-10 24-22 24-12 0-22-11-22-24 0-13 10-23 22-23 12 0 22 10 22 23z m95 0c0 13-10 24-22 24-13 0-23-11-23-24 0-13 10-23 23-23 12 0 22 10 22 23z m94 0c0 13-10 24-22 24-12 0-22-11-22-24 0-13 10-23 22-23 12 0 22 10 22 23z m32 189l-53 94-71-152-42 43c0 0-58-22-77-54-30 16-47 0-47 0l-41-49 331 0z m-240 20c27 0 50 22 50 49 0 27-23 49-50 49-27 0-50-22-50-49 0-27 23-49 50-49z"/>
<glyph glyph-name="map" unicode="&#51;" d="M6 506l0-503 503 0 0 503z m472-472l-441 0 0 441 441 0z m-171 151c0-24 13-44 32-55l30-49 29 49c19 11 33 31 33 55 0 34-28 61-62 61-34 0-62-27-62-61z m82 0c0-12-9-21-20-21-12 0-21 9-21 21 0 11 9 20 21 20 11 0 20-9 20-20z m-113-28l10-5 0 227 62-30 0-85c7 2 14 3 21 3l0 95-93 45-83-40-93 45 0-250 93-45z m-72 192l62 30 0-204-62-30z m-21-204l-62 30 0 204 62-30z"/>
<glyph glyph-name="text-box" unicode="&#52;" d="M4 509l0-504 504 0 0 504z m473-472l-441 0 0 441 441 0z m-344 294l17 0c1 12 2 22 4 32 0 4 1 6 2 7 1 1 3 1 8 2 11 1 25 1 40 1l30 0c0-4 0-22 0-56l0-121c0-29-1-47-2-53-1-3-3-6-7-8-3-1-13-2-29-3l0-16c25 1 48 1 68 1 18 0 41 0 68-1l0 16c-17 1-27 2-30 3-3 2-5 5-6 8-2 6-2 24-2 53l0 121c0 33 0 51 0 56l30 0c16 0 30-1 41-2 4 0 6 0 7-1 1-1 2-4 3-9 1-9 2-19 2-30l18 0c0 29 0 43 0 44 1 7 2 14 3 22l-2 2c-7-1-13-1-20-1-12-1-35-1-70-1l-84 0c-34 0-57 0-69 1-8 0-15 0-21 1l-2-2c1-7 2-13 2-19 0-4 1-19 1-47z"/>
<glyph glyph-name="video" unicode="&#53;" d="M180 350l0-171 172 78z m-172 157l0-500 500 0 0 500z m375-32l78 0 0-31-78 0z m-109 0l78 0 0-31-78 0z m-110 0l78 0 0-31-78 0z m-109 0l78 0 0-31-78 0z m78-437l-78 0 0 31 78 0z m109 0l-78 0 0 31 78 0z m110 0l-78 0 0 31 78 0z m109 0l-78 0 0 31 78 0z m16 62l-438 0 0 313 438 0z"/>
<glyph glyph-name="offer" unicode="&#54;" d="M5 505l0-501 502 0 0 501z m470-470l-438 0 0 439 438 0z m-391 329l344 0c9 0 16 7 16 16l0 16c0 8-7 15-16 15l-344 0c-9 0-16-7-16-15l0-16c0-9 7-16 16-16z m0-125l344 0c9 0 16 7 16 16l0 15c0 9-7 16-16 16l-344 0c-9 0-16-7-16-16l0-15c0-9 7-16 16-16z m0-125l344 0c9 0 16 7 16 15l0 16c0 9-7 16-16 16l-344 0c-9 0-16-7-16-16l0-16c0-8 7-15 16-15z"/>
<glyph glyph-name="deal" unicode="&#55;" d="M4 508l0-505 505 0 0 505z m473-473l-441 0 0 441 441 0z m-394 126l205 0 0-32-205 0z m0-47l142 0 0-32-142 0z m315 197l-45 81-61-131-36 37c0 0-50-19-66-47-26 14-40 0-40 0l-36-43 284 0z m-163 60c0-23-19-42-43-42-23 0-42 19-42 42 0 24 19 43 42 43 24 0 43-19 43-43z m84-210l79 0 0-79-79 0z"/>
<glyph glyph-name="3dots" unicode="&#56;" d="M120 309c0-31-25-56-56-56-31 0-56 25-56 56 0 31 25 56 56 56 31 0 56-25 56-56z m196 0c0-31-25-56-56-56-31 0-56 25-56 56 0 31 25 56 56 56 31 0 56-25 56-56z m196 0c0-31-25-56-56-56-31 0-56 25-56 56 0 31 25 56 56 56 31 0 56-25 56-56z"/>
<glyph glyph-name="circle-filled" unicode="&#57;" d="M256 464c115 0 208-93 208-208 0-115-93-208-208-208-115 0-208 93-208 208 0 115 93 208 208 208z m0-399c105 0 191 86 191 191 0 105-86 191-191 191-105 0-191-86-191-191 0-105 86-191 191-191z m0 351c88 0 160-72 160-160 0-88-72-160-160-160-88 0-160 72-160 160 0 88 72 160 160 160z"/>
<glyph glyph-name="circle-filled-outline" unicode="&#33;" d="M256 464c115 0 208-93 208-208 0-115-93-208-208-208-115 0-208 93-208 208 0 115 93 208 208 208z m0-399c105 0 191 86 191 191 0 105-86 191-191 191-105 0-191-86-191-191 0-105 86-191 191-191z"/>
<glyph glyph-name="ractangle" unicode="&#34;" d="M35 512l477 0 0-477-477 0z"/>
<glyph glyph-name="radio-btn-active" unicode="&#35;" d="M276 512c-131 0-237-107-237-240 0-132 106-240 237-240 130 0 236 108 236 240 0 133-106 240-236 240z m0-373c-73 0-132 60-132 133 0 74 59 133 132 133 72 0 131-59 131-133 0-73-59-133-131-133z"/>
<glyph glyph-name="radio-btn-normal" unicode="&#36;" d="M276 512c130 0 236-107 236-240 0-132-106-240-236-240-131 0-237 108-237 240 0 133 106 240 237 240z"/>
<glyph glyph-name="ellipsis" unicode="&#37;" d="M311 155l0-54c0-8-3-15-8-20-5-5-12-8-20-8l-54 0c-8 0-15 3-20 8-5 5-8 12-8 20l0 54c0 8 3 15 8 20 5 5 12 8 20 8l54 0c8 0 15-3 20-8 5-5 8-12 8-20z m0 147l0-55c0-8-3-14-8-20-5-5-12-8-20-8l-54 0c-8 0-15 3-20 8-5 6-8 12-8 20l0 55c0 7 3 14 8 19 5 5 12 8 20 8l54 0c8 0 15-3 20-8 5-5 8-12 8-19z m0 146l0-55c0-7-3-14-8-19-5-6-12-8-20-8l-54 0c-8 0-15 2-20 8-5 5-8 12-8 19l0 55c0 8 3 14 8 19 5 6 12 8 20 8l54 0c8 0 15-2 20-8 5-5 8-11 8-19z"/>
<glyph glyph-name="compose" unicode="&#38;" d="M480 0l-448 0c-18 0-32 14-32 32l0 448c0 18 14 32 32 32l320 0-64-64-224 0 0-384 384 0 0 224 64 64 0-320c0-18-14-32-32-32z m-352 128l0 96 288 288 32 0 64-64 0-32-288-288z m144 112l176 176-32 32-176-176z m-80-16l-32-32 0-32 32 0 32 32z"/>
<glyph glyph-name="search-1" unicode="&#39;" d="M344 214l-4-7 108-109-34-34-108 109-7-5c-24-15-53-25-83-25-84 0-152 69-152 153 0 84 68 152 152 152 84 0 152-68 152-152 0-30-9-58-24-82z m-43 167c-23 23-53 35-85 35-32 0-62-12-85-35-23-23-35-53-35-85 0-32 12-62 35-85 23-23 53-35 85-35 32 0 62 12 85 35 23 23 36 53 36 85 0 32-13 62-36 85z"/>
<glyph glyph-name="diff-added" unicode="&#40;" d="M288 352l-64 0 0-64-64 0 0-64 64 0 0-64 64 0 0 64 64 0 0 64-64 0z m160 128c-16 0-368 0-384 0-16 0-32-16-32-32 0-16 0-368 0-384 0-16 16-32 32-32 16 0 368 0 384 0 16 0 32 16 32 32 0 16 0 368 0 384 0 16-16 32-32 32z m-32-368c0-8-8-16-16-16-7 0-279 0-288 0-9 0-16 6-16 16 0 8 0 280 0 288 0 8 8 16 16 16 8 0 281 0 288 0 8 0 16-8 16-16 0-8 0-280 0-288z"/>
<glyph glyph-name="diff-removed" unicode="&#41;" d="M448 480l-384 0c-16 0-32-16-32-32l0-384c0-16 16-32 32-32l384 0c16 0 32 16 32 32l0 384c0 16-16 32-32 32z m-32-368c0-8-8-16-16-16l-288 0c-9 0-16 6-16 16l0 288c0 8 8 16 16 16l288 0c8 0 16-8 16-16z m-256 112l192 0 0 64-192 0z"/>
<glyph glyph-name="plus" unicode="&#42;" d="M288 288l0 128-64 0 0-128-128 0 0-64 128 0 0-128 64 0 0 128 128 0 0 64z"/>
<glyph glyph-name="dash" unicode="&#43;" d="M128 288l0-64 256 0 0 64z"/>
<glyph glyph-name="calendar-1" unicode="&#44;" d="M427 427l0 85-128 0 0-85-86 0 0 85-128 0 0-85-85 0 0-406 512 0 0 406z m-86 42l43 0 0-85-43 0z m-213 0l43 0 0-85-43 0z m341-405l-426 0 0 235 426 0z m0 256l-426 0 0 64 42 0 0-43 128 0 0 43 86 0 0-43 128 0 0 43 42 0z m-362-85l42 0 0-43-42 0z m64 0l42 0 0-43-42 0z m64 0l42 0 0-43-42 0z m64 0l42 0 0-43-42 0z m64 0l42 0 0-43-42 0z m-256-64l42 0 0-43-42 0z m64 0l42 0 0-43-42 0z m64 0l42 0 0-43-42 0z"/>
<glyph glyph-name="clock" unicode="&#45;" d="M256 512c-141 0-256-115-256-256 0-141 115-256 256-256 141 0 256 115 256 256 0 141-115 256-256 256z m0-469c-118 0-213 95-213 213 0 118 95 213 213 213 118 0 213-95 213-213 0-118-95-213-213-213z m95 360c-11 5-23 1-29-9l-72-145-43 43c-8 9-22 9-30 0-8-8-8-21 0-30l64-64c4-4 9-6 15-6 1 0 2 0 3 0 7 1 13 6 16 12l85 170c6 11 1 24-9 29z m-116-296l42 0 0-22-42 0z m0 341l42 0 0-21-42 0z m-171-171l43 0 0-21-43 0z m341 0l43 0 0-21-43 0z"/>
<glyph glyph-name="fighter-jet" unicode="&#47;" d="M512 239c0-6-26-14-77-26l-94-8-59-17-17 0-79-94 19 0c4 0 8-1 12-1 3-1 5-2 5-3 0-2-2-3-5-3-4-1-8-2-12-2l-86 0 0 9 18 0 0 111-43 0-51-60-26 0-8 9 0 51 8 0 0 8 34 0 0 2-51 7 0 34 51 6 0 3-34 0 0 8-8 0 0 51 8 9 26 0 51-60 43 0 0 111-18 0 0 9 86 0c4 0 8-1 12-2 3 0 5-1 5-3 0-1-2-2-5-3-4-1-8-1-12-1l-19 0 79-94 17 0 59-17 94-8c47-11 72-19 77-25z"/>
<glyph glyph-name="plane-airport" unicode="&#58;" d="M448 466c8-10 10-24 3-42-6-18-16-35-30-49l-46-46 45-199c1-4 0-7-3-9l-37-28c-1-1-3-2-5-2-1 0-2 1-2 1-3 0-5 2-6 4l-80 145-74-74 15-55c1-3 0-6-2-9l-27-27c-2-2-4-3-7-3l-1 0c-2 1-5 2-6 4l-54 72-72 54c-3 1-4 3-4 6 0 3 1 5 2 8l28 27c2 2 4 3 6 3 2 0 2 0 3 0l55-16 74 74-145 80c-3 2-4 4-5 7 0 3 1 6 3 8l36 36c3 3 6 4 9 3l190-46 46 46c14 14 30 25 49 31 18 6 32 5 42-4z"/>
<glyph glyph-name="tick2" unicode="&#59;" d="M432 443l-230-220-121 116-80-77 161-155 40-38 310 297z"/>
<glyph glyph-name="version-control" unicode="&#60;" d="M279 497c-1 0-1 0-2 0-13 0-22-11-22-25 0-13 5-24 25-24 94-2 177-84 177-185 0-102-82-186-182-186-95 0-174 74-181 170l42 0-65 110-65-110 40 0c7-122 107-218 228-218 127 0 229 105 229 234 0 127-100 231-224 234z m11-367c0 8-7 15-15 15-8 0-14-7-14-15 0-8 6-15 14-15 8 0 15 7 15 15z m95 221c0 8-7 15-15 15-8 0-14-7-14-15 0-8 6-14 14-14 8 0 15 6 15 14z m0-175c0 8-7 14-15 14-8 0-14-6-14-14 0-8 6-15 14-15 8 0 15 7 15 15z m31 86c0 8-6 15-14 15-8 0-14-7-14-15 0-8 6-15 14-15 8 0 14 7 14 15z m-188-94l65 66c0 1 1 2 1 2 4 4 6 9 6 15l0 132c0 11-9 21-20 21l-5 0c-11 0-20-10-20-21l0-123-59-60c-9-9-8-23 0-32 8-9 23-9 32 0z"/>
<glyph glyph-name="chevron-down" unicode="&#64;" d="M256 137l183 183-54 55-129-129-129 129-54-55z"/>
<glyph glyph-name="chevron-left-thick" unicode="&#91;" d="M352 384l-127-128 127-128-32-32-160 160 160 160z"/>
<glyph glyph-name="open-door-car" unicode="&#93;" d="M352 183l0-7c0 0 0 3 0 7z m77-38c1 3 0 27-3 29l-73 42c0 1-1-22-1-33l68-40c3-1 7-1 9 2z m0 79c2 3 0 36-3 38l-73 42c-1 0-1 0-1 1l0 161c-9 32-55 43-55 43l-96 0c0 0-46-11-55-43l0-161c0-1 0-1-1-1l-73-42c-3-2-5-35-3-38 1-3 6 5 9 7l68 40 0-54c0 0 0 0-1-1l-73-42c-3-2-5-28-3-31 1-3 6-1 9 0l68 40 0-138c0 0 10-45 51-45l104 0c41 0 51 45 51 45l0 226 68-40c3-2 8-10 9-7z m-117 260c11 0 20-6 20-14 0-7-9-13-20-13-11 0-20 6-20 13 0 8 9 14 20 14z m-66-113c1 0 2 0 3 0 1 0 2 0 3 0 26 0 53-5 80-17l-21-70-124 0-21 70c27 12 54 17 80 17z m-60 113c11 0 20-6 20-14 0-7-9-13-20-13-11 0-20 6-20 13 0 8 9 14 20 14z m-28-365l0 185 8 0c0 0 46-111 0-185z m91-63c-22 1-47 4-73 13l16 75 113 0 17-75c-26-9-51-12-73-13z m91 63l-8 0c-46 74 0 185 0 185l8 0z"/>
<glyph glyph-name="ac" unicode="&#94;" d="M464 379l-20 13-58-32 0 43-19 9-19-9 0-67-39-22 0 47-37-23 0 43 55 31 0 21-19 12-37-20 0 65-21 13-20-13 0-65-36 20-19-11 0-23 54-30 0-43-40 21 0-44-38 22 1 63-21 12-17-12 0-42-56 33-22-11 0-26 57-32-36-20 0-24 20-10 53 31 36-21-36-23 37-22 1-1-36-21-53 31-21-11 0-24 37-19-59-33 0-26 24-10 56 32 0-41 17-12 20 13 0 62 37 22 0-46 39 25 0-43-54-30 0-24 19-10 36 20 0-65 20-14 21 14 0 65 35-20 19 9 0 25-53 30 0 43 37-23 0 43 40-23 0-62 18-11 19 11 0 41 53-31 23 11 0 25-54 33 34 20 0 22-17 12-54-30-39 20 37 22-36 23 38 24 54-32 18 10 0 23-35 20 56 33z m-194-153l-36 0-19 29 18 30 36 0 17-30z"/>
<glyph glyph-name="auto-transmission" unicode="&#96;" d="M222 235l66 0-33 90z m34 268c-136 0-247-111-247-247 0-136 111-247 247-247 136 0 247 111 247 247 0 136-111 247-247 247z m69-364l-21 54-96 0-20-54-52 0 94 242 51 0 97-242z"/>
<glyph glyph-name="bar" unicode="&#123;" d="M384 320l0 192-256 0 0-192c0-59 41-109 96-123l0-133c0 0 0-32-32-32-64 0-64-32-64-32l256 0c0 0 0 32-64 32-32 0-32 32-32 32l0 133c55 14 96 64 96 123z m-224 32l0 128 192 0 0-128z"/>
<glyph glyph-name="gps" unicode="&#124;" d="M503 283l-63 0c-12 77-70 136-146 150l0 70-52 0 0-68c-81-10-143-72-155-152l-67 0 0-52 67 0c12-80 74-141 155-151l0-71 52 0 0 73c76 13 134 72 146 149l63 0z m-240-182c-86 0-155 70-155 156 0 86 69 156 155 156 87 0 156-70 156-156 0-86-69-156-156-156z m104 156c0 59-46 107-104 107-57 0-103-48-103-107 0-59 46-107 103-107 58 0 104 48 104 107z"/>
<glyph glyph-name="fitness" unicode="&#125;" d="M482 406l-12 0c-10 0-18-9-18-21l0-234c0-12 8-21 18-21l12 0c10 0 18 9 18 21l0 234c0 12-8 21-18 21z m-440 0l-12 0c-10 0-18-9-18-21l0-234c0-12 8-21 18-21l12 0c10 0 18 9 18 21l0 234c0 12-8 21-18 21z m361 22l-13 0c-12 0-22-11-22-25l0-270c0-14 10-25 22-25l13 0c12 0 22 11 22 25l0 270c0 14-10 25-22 25z m-281 0l-13 0c-12 0-22-11-22-25l0-270c0-14 10-25 22-25l13 0c12 0 22 11 22 25l0 270c0 14-10 25-22 25z m52-132l165 0 0-69-165 0z"/>
<glyph glyph-name="internet" unicode="&#126;" d="M255 470c45 0 85-29 101-71l25 10c-20 52-70 87-126 87-56 0-105-33-125-86l24-9c17 42 56 69 101 69z m0-31c-35 0-67-21-81-54l23-10c11 23 33 38 58 38 25 0 48-15 58-39l24 10c-14 34-47 55-82 55z m150-101l-311 0 0-229 311 0z m-31-187l-249 0 0 156 249 0z m-331-125l414 0 0-10-414 0z m180 13l71 0-13 18-51 0z m-6 29l77 0 15-32 149 0-51 63-307 0-52-63 154 0z"/>
<glyph glyph-name="repeat" unicode="&#92;" d="M475 439l0-128c0-5-1-9-5-13-4-4-8-5-13-5l-128 0c-8 0-13 3-17 11-3 7-2 14 4 20l40 39c-28 26-62 39-100 39-20 0-39-4-57-11-18-8-33-18-46-32-14-13-24-28-32-46-7-18-11-37-11-57 0-20 4-39 11-57 8-18 18-33 32-46 13-14 28-24 46-32 18-7 37-11 57-11 23 0 44 5 64 15 20 9 38 23 51 42 2 1 4 3 7 3 3 0 5-1 7-3l39-39c2-2 3-3 3-6 0-2-1-4-2-6-21-25-46-45-76-59-29-14-60-20-93-20-30 0-58 5-85 17-27 12-51 27-70 47-20 19-35 43-47 70-12 27-17 55-17 85 0 30 5 58 17 85 12 27 27 51 47 70 19 20 43 35 70 47 27 12 55 17 85 17 28 0 55-5 81-15 26-11 50-26 70-45l37 37c6 6 12 7 20 4 8-4 11-9 11-17z"/>
<glyph glyph-name="maual-transmission" unicode="&#57344;" d="M256 512c-140 0-253-113-253-253 0-139 113-253 253-253 140 0 253 114 253 253 0 140-113 253-253 253z m124-379l-43 0 0 191-51-191-47 0-51 191 0-191-43 0 0 241 73 0 44-166 44 166 74 0z"/>
<glyph glyph-name="restaurant" unicode="&#57345;" d="M385 507l-32 0c-17 0-31-14-31-31l0-441c0-17 14-31 31-31l32 0c17 0 32 14 32 31l0 157 31 0c18 0 32 15 32 32l0 189c0 52-43 94-95 94z m-174 0c-9 0-16-7-16-16l0-94c0-9-7-16-16-16-9 0-16 7-16 16l0 94c0 9-7 16-16 16-8 0-16-7-16-16l0-94c0-9-7-16-15-16-9 0-16 7-16 16l0 94c0 9-7 16-16 16-9 0-16-7-16-16l0-119c0-11 4-22 9-31 6-9 13-17 23-23l0-267c0-26 21-47 47-47 27 0 48 21 48 47l0 267c9 6 17 14 23 23 5 9 9 20 9 31l0 119c0 9-8 16-16 16z m-64-472c-8 0-16 7-16 16 0 9 8 16 16 16 9 0 16-7 16-16 0-9-7-16-16-16z"/>
<glyph glyph-name="seats" unicode="&#57346;" d="M63 342l-63-3 70-314 255 0 0 65-195 0z m183 119c0 28-25 51-57 51-31 0-57-23-57-51 0-28 26-51 57-51 32 0 57 23 57 51z m254-394l-88 142c-3 6-7 11-12 15-7 5-15 8-24 8 0 0-1 0-1 0l-144 0-25 131c0 20-17 35-39 35-21 0-39-15-39-35l31-166c0-2 0-4 1-7 1-4 3-8 5-12 0 0 0 0 1 0 0-1 2-2 3-3 0-1 1-2 1-2 1-1 1-1 2-2 7-5 16-9 26-9l166 0 95-117c10-15 21-24 38-16 17 9 13 24 3 38z"/>
<glyph glyph-name="parking" unicode="&#57347;" d="M77 195l0-43c0-19 15-34 33-34 19 0 34 15 34 34l0 43 224 0 0-43c0-19 15-34 33-34 19 0 34 15 34 34l0 43 23 0 0 132-52 31-5 79c-2 21-20 38-41 38l-208 0c-22 0-39-17-41-38l-5-79-52-31 0-132z m101 48l0 50c0 7 6 13 13 13l134 0c7 0 12-6 12-13l0-50z m224 67c16 0 28-13 28-28 0-16-12-29-28-29-15 0-28 13-28 29 0 15 13 28 28 28z m-262 125c1 11 10 11 21 11l189 0c11 0 21 0 22-11l5-76-242 0z m-30-125c15 0 28-13 28-28 0-16-13-29-28-29-16 0-28 13-28 29 0 15 12 28 28 28z m372-192l0-48-452 0 0 48-24 0 0-71 500 0 0 71z"/>
<glyph glyph-name="petrol" unicode="&#57348;" d="M239 342c6 7 5 13 3 16-13 11-19 28-29 42 0 0-6 6-13 0-8-7-42-43-42-43 0 0-25 6-55-18-30-25-54-56-54-56 0 0-14-18-4-33 10-15 9-22 3-38-7-15-39-108-39-108 0 0-7-14 0-19 7-5 31-10 31-10 0 0 8-3 14 3 2 10 7 20 13 28l44 119 38 0c0 0 7 2 34-28 11-13-9-67-28-96-19-29-46-11-65-3-11 4-14 5-17 6-6-7-10-14-13-23 1-3 1-8 15-10 17-3 62-6 62-6 0 0 24-3 36 17 12 21 49 102 49 102 0 0 8 15 2 30l2 8c0 0 5 1 12 13 6 12 15 23 9 48-6 26-18 47-8 59z m223 68c1 9 1 64-10 64-12-1-78-6-78-6 0 0-3 4-10 6-7 2-11-10-11-10l-9 0c0 0-7 6-12 5-6 0-10-11-10-11l-9-4c0 0-6 6-14 4-8-2-6-16-6-16l-8-4c0 0-2 5-12 5-9 0-8-17-8-17l-11-7c0 0-5 3-12 0-7-3-8-9-8-9l-15-4c8-13 15-29 26-39 0 0 9-18 17-21l13 11c0 0 6 0 6 3l19 13c0 0 5-5 5 4l19 9c0 0 5-6 6 3l21 5c0 0 5-7 6 2l17 0c0 0 5-14 9 3l69 5c0 0 8-3 10 6z m-219 2c0 0-4 3 5 3z m27 18c0 0-3 11 8 6z m28 17c0 0 0 9 9 5z m29 12c0 0 3 9 10 3z m32 5c0 0 5 13 10 0z m131-134c-11 25-19 51-19 51 0 0-6-19-17-46-10-26 2-45 17-45 15 0 30 16 19 40z m-63-15c0 0-6-19-17-45-11-27 1-46 17-46 15 0 30 16 19 40-11 25-19 51-19 51z m75-91c-11 27-17 46-17 46 0 0-8-26-19-51-11-25 4-40 19-40 15 0 28 18 17 45z"/>
<glyph glyph-name="swimming-pool" unicode="&#57349;" d="M424 93c-21 0-35-14-56-14-21 0-35 14-56 14-21 0-35-14-56-14-21 0-35 14-56 14-21 0-35-14-56-14-21 0-35 14-56 14-21 0-35-14-56-14-11 0-20 4-29 7l0-41c9-4 18-7 29-7 21 0 35 14 56 14 21 0 35-14 56-14 21 0 35 14 56 14 21 0 35-14 56-14 21 0 35 14 56 14 21 0 35-14 56-14 21 0 35 14 56 14 21 0 35-14 57-14 10 0 19 3 28 7l0 41c-9-3-18-7-28-7-22 0-36 14-57 14z m0 83c-21 0-35-14-56-14-21 0-35 14-56 14-21 0-35-14-56-14-21 0-35 14-56 14-21 0-35-14-56-14-21 0-35 14-56 14-21 0-35-14-56-14-11 0-20 4-29 7l0-41c9-4 18-7 29-7 21 0 35 14 56 14 21 0 35-14 56-14 21 0 35 14 56 14 21 0 35-14 56-14 21 0 35 14 56 14 21 0 35-14 56-14 21 0 35 14 56 14 21 0 35-14 57-14 10 0 19 3 28 7l0 41c-9-3-18-7-28-7-22 1-36 14-57 14z m-336 42l140 0 0-21c9-3 17-7 28-7 5 0 10 1 14 2l0 144c0 53 44 97 98 97 54 0 98-44 98-97 0-12 10-21 22-21 11 0 21 9 21 21 0 76-63 138-141 138-75 0-136-58-140-131l-140 0c4 50 46 90 98 90 17 0 32-5 46-12 8 12 17 23 28 32-22 13-47 21-74 21-78 0-141-62-141-138l0-144c15 4 27 12 43 12z m0 83l140 0 0-42-140 0z"/>
<glyph glyph-name="arrow-down" unicode="&#57350;" d="M224 512l0-352-96 0 128-160 128 160-96 0 0 352z"/>
<glyph glyph-name="arrow-up" unicode="&#57351;" d="M256 512l-128-160 96 0 0-352 64 0 0 352 96 0z"/>
<glyph glyph-name="cart-shopping-1" unicode="&#57353;" d="M404 104c-25 0-45-17-50-40l-163 0c-3 13-10 24-20 32l20 64 257 0 51 222-406 54-32 22 1 7c0 17-14 31-31 31-17 0-31-14-31-31 0-17 14-31 31-31l6 1 38-25 64-250 19 0-17-54-2 1c-30 0-54-24-54-54 0-29 24-53 54-53 22 0 40 13 49 32l168 0c8-19 26-32 48-32 29 0 52 23 52 52 0 29-23 52-52 52"/>
<glyph glyph-name="exclamation-circle" unicode="&#57354;" d="M256 475c40 0 77-9 110-29 34-20 60-46 80-80 20-33 29-70 29-110 0-40-9-77-29-110-20-34-46-60-80-80-33-20-70-29-110-29-40 0-77 9-110 29-34 20-60 46-80 80-20 33-29 70-29 110 0 40 9 77 29 110 20 34 46 60 80 80 33 20 70 29 110 29z m37-356l0 54c0 3-1 5-3 7-2 2-4 3-6 3l-55 0c-3 0-5-1-7-3-2-2-3-4-3-7l0-54c0-2 1-5 3-6 2-2 4-3 7-3l55 0c2 0 4 1 6 2 2 2 3 4 3 7z m-1 98l5 178c0 2-1 4-3 5-2 2-4 2-7 2l-62 0c-3 0-5 0-7-2-2-1-3-3-3-5l5-178c0-1 1-3 3-5 1-1 4-2 6-2l53 0c3 0 5 1 7 2 2 2 3 4 3 5z"/>
<glyph glyph-name="call-phone" unicode="&#57355;" d="M457 158c0-5-1-12-3-20-2-9-4-15-6-20-4-10-15-20-35-30-17-10-35-15-53-15-5 0-10 0-15 1-5 1-10 2-16 4-6 1-11 3-14 4-3 1-8 3-16 6-7 3-12 4-14 5-18 7-35 14-50 24-24 15-49 35-75 61-26 26-47 51-62 76-9 14-17 31-23 50-1 1-3 6-6 14-2 7-4 13-5 16-1 3-3 7-5 13-1 6-2 12-3 17-1 4-1 9-1 15 0 17 5 35 14 53 11 19 21 31 31 35 4 2 11 4 19 6 9 1 15 2 20 2 3 0 5 0 6 0 4-2 9-9 16-22 2-4 5-9 8-16 4-6 7-12 10-18 3-5 6-10 9-15 1-1 2-3 5-7 3-4 5-8 6-10 1-3 2-6 2-8 0-4-3-9-8-15-5-5-11-11-18-15-6-5-12-10-17-16-6-5-9-9-9-13 0-1 1-4 2-6 1-3 2-5 2-6 1-1 2-4 4-7 2-3 3-5 4-5 14-26 31-49 49-67 19-19 41-36 67-50 1 0 3-1 6-3 3-2 5-4 7-4 1-1 3-2 6-3 2-1 4-1 6-1 3 0 8 2 13 8 5 5 11 11 15 18 5 6 10 12 16 17 6 6 10 8 14 8 3 0 6 0 8-2 3-1 7-3 11-6 4-2 6-4 7-5 4-3 10-6 15-9 5-3 11-6 18-10 7-3 12-6 16-8 13-7 20-12 21-15 1-2 1-4 1-6z"/>
<glyph glyph-name="twitter" unicode="&#57356;" d="M370 141l-114 0c-16 0-29 5-40 16-11 12-17 25-17 41l0 40 162 0c15 0 28 6 38 16 11 11 16 23 16 38 0 14-5 27-16 37-10 11-23 16-38 16l-162 0 0 84c0 16-5 29-16 40-12 12-25 17-41 17-16 0-30-5-41-16-11-11-17-25-17-41l0-231c0-48 17-88 51-122 33-34 74-50 121-50l114 0c16 0 29 5 41 17 11 11 17 24 17 40 0 16-6 30-17 41-12 11-25 17-41 17z"/>
<glyph glyph-name="google-plus" unicode="&#57357;" d="M269 93c0 4-1 8-2 12-1 4-1 7-2 10-1 3-3 7-5 10-3 4-5 6-6 9-2 2-5 5-8 8-3 4-6 6-8 8-2 1-5 4-9 7-4 3-7 5-9 6-1 2-5 4-9 7-5 3-8 5-9 6-3 0-8 1-14 1-11 0-21-1-31-2-9-2-20-4-30-8-11-3-20-7-28-13-8-5-15-12-20-21-5-9-8-19-8-31 0-13 4-24 10-34 7-11 16-19 27-24 11-6 22-11 34-13 12-3 24-5 37-5 11 0 22 1 32 4 10 2 19 6 28 11 9 5 16 12 22 21 5 9 8 19 8 31z m-35 247c0 11-1 23-4 36-4 13-8 25-14 37-6 12-14 22-24 30-10 8-21 12-34 12-18 0-31-7-41-20-10-13-15-29-15-47 0-9 1-18 4-28 2-10 5-20 10-30 4-10 10-19 16-27 6-8 13-14 22-19 9-5 18-7 28-7 18 0 32 5 40 17 8 11 12 27 12 46z m-37 135l125 0-39-22-38 0c13-9 24-21 31-36 7-16 11-32 11-48 0-15-2-27-6-38-5-11-10-20-16-26-7-7-13-13-19-19-7-5-12-11-16-17-5-6-7-13-7-20 0-5 2-9 5-14 3-5 7-9 12-14 5-4 11-9 17-14 6-4 12-10 18-15 6-6 12-13 17-19 5-7 9-15 12-25 3-9 5-19 5-30 0-30-13-57-40-81-29-25-69-37-120-37-11 0-23 1-34 3-12 2-23 5-35 9-12 5-22 10-31 17-9 7-16 15-22 25-6 11-9 22-9 35 0 12 4 25 11 39 6 12 15 22 27 31 12 9 26 16 42 21 15 4 30 8 44 10 14 2 28 3 43 4-12 16-18 30-18 42 0 3 0 5 0 7 1 2 1 4 2 6 0 1 1 3 2 6 1 2 1 4 2 6-8-1-14-2-20-2-29 0-53 10-73 28-20 19-31 43-31 71 0 26 9 50 28 71 18 21 40 35 66 41 18 4 36 5 54 5z m297-73l0-36-73 0 0-73-37 0 0 73-73 0 0 36 73 0 0 73 37 0 0-73z"/>
<glyph glyph-name="linkedin" unicode="&#57358;" d="M136 333l0-283-94 0 0 283z m6 88c0-14-4-26-14-35-10-9-23-14-39-14-16 0-29 5-38 14-10 9-14 21-14 35 0 14 4 26 14 35 10 9 23 14 39 14 16 0 28-5 38-14 9-9 14-21 14-35z m333-208l0-163-94 0 0 152c0 20-3 35-11 47-8 11-20 17-36 17-12 0-22-4-30-10-9-7-15-15-19-25-2-5-3-13-3-23l0-158-94 0c1 76 1 138 1 185 0 47 0 76 0 85l-1 13 94 0 0-41c4 6 7 12 11 16 4 5 10 10 17 15 6 5 15 10 24 13 10 3 21 4 33 4 33 0 59-11 79-32 20-22 29-54 29-95z"/>
<glyph glyph-name="money-banknote" unicode="&#57359;" d="M205 188l102 0 0 25-34 0 0 120-30 0-40-37 21-21c7 7 12 12 14 15l1 0 0-77-34 0z m136 68c0-12-2-25-5-38-4-13-9-25-16-36-7-11-16-20-27-27-11-6-24-10-37-10-13 0-26 4-37 10-11 7-20 16-27 27-7 11-12 23-16 36-3 13-5 26-5 38 0 12 2 25 5 38 4 13 9 25 16 36 7 11 16 20 27 27 11 6 24 10 37 10 13 0 26-4 37-10 11-7 20-16 27-27 7-11 12-23 16-36 3-13 5-26 5-38z m137-68l0 136c-19 0-35 7-48 20-14 14-20 30-20 49l-308 0c0-19-6-35-20-49-13-13-29-20-48-20l0-136c19 0 35-7 48-20 14-14 20-30 20-49l308 0c0 19 6 35 20 49 13 13 29 20 48 20z m34 222l0-308c0-4-2-8-5-12-3-3-7-5-12-5l-478 0c-5 0-9 2-12 5-3 4-5 8-5 12l0 308c0 4 2 8 5 12 3 3 7 5 12 5l478 0c5 0 9-2 12-5 3-4 5-8 5-12z"/>
<glyph glyph-name="facebook" unicode="&#57360;" d="M292 353l74 0-9-81-65 0 0-235-97 0 0 235-49 0 0 81 49 0 0 49c0 35 8 61 24 79 17 18 44 26 81 26l65 0 0-81-40 0c-8 0-14 0-18-2-5-1-8-3-10-6-2-4-3-7-4-10 0-3-1-8-1-14z"/>
<glyph glyph-name="rss-two" unicode="&#57361;" d="M165 128c0-15-6-28-16-39-11-11-24-16-39-16-16 0-28 5-39 16-11 11-16 24-16 39 0 15 5 28 16 39 11 11 23 16 39 16 15 0 28-5 39-16 10-11 16-24 16-39z m146-35c0-5-1-10-5-14-3-4-8-6-13-6l-39 0c-5 0-9 2-12 5-4 3-6 7-6 12-4 43-22 81-53 112-31 31-68 48-112 52-4 1-8 3-11 6-4 3-5 8-5 12l0 39c0 5 2 10 6 13 3 4 7 5 12 5l2 0c30-2 59-10 87-23 28-13 52-30 74-52 22-21 39-46 52-74 13-28 20-57 23-87z m146-1c1-5-1-9-5-13-3-4-8-6-13-6l-41 0c-5 0-9 2-13 5-3 3-5 8-5 12-3 41-12 80-29 117-17 37-39 69-66 96-27 27-59 49-96 66-37 17-76 27-117 29-5 0-9 2-12 6-3 3-5 8-5 12l0 41c0 5 2 10 6 13 3 4 7 5 12 5l1 0c50-2 98-13 143-34 46-20 86-48 122-84 35-35 63-76 84-121 20-46 32-94 34-144z"/>
<glyph glyph-name="rupee" unicode="&#57362;" d="M384 378l0-29c0-3-1-5-2-7-2-2-4-3-7-3l-48 0c-4-27-17-49-37-66-20-18-46-28-79-32 32-34 76-85 132-153 2-3 3-6 1-10-2-3-5-5-9-5l-55 0c-3 0-6 1-7 4-59 69-106 124-143 163-1 1-2 4-2 6l0 36c0 3 1 5 2 7 2 2 4 2 7 2l32 0c25 0 45 5 61 13 15 8 25 20 29 35l-122 0c-3 0-5 1-7 3-1 2-2 4-2 7l0 29c0 2 1 5 2 6 2 2 4 3 7 3l118 0c-11 21-37 32-77 32l-41 0c-3 0-5 1-7 3-1 2-2 4-2 6l0 38c0 3 1 5 2 7 2 2 4 2 7 2l238 0c2 0 4 0 6-2 2-2 3-4 3-7l0-29c0-3-1-5-3-6-2-2-4-3-6-3l-67 0c9-12 15-25 18-41l49 0c3 0 5-1 7-3 1-1 2-4 2-6z"/>
<glyph glyph-name="twitter-1" unicode="&#57363;" d="M481 395c-13-18-28-34-46-47 0-3 0-7 0-12 0-25-3-50-11-74-7-25-18-49-33-71-14-23-32-43-52-61-21-17-45-31-74-41-29-11-60-16-92-16-52 0-99 14-142 42 7-1 14-2 22-2 43 0 81 14 115 40-20 0-38 6-54 18-16 12-27 27-33 46 7-1 13-2 18-2 8 0 16 1 24 4-21 4-39 15-53 31-14 17-21 37-21 59l0 1c13-7 27-11 42-11-13 8-23 19-30 32-8 14-11 29-11 44 0 17 4 33 12 47 23-28 51-51 84-68 33-17 69-27 107-29-2 8-3 15-3 22 0 25 9 47 27 65 18 18 40 27 66 27 26 0 49-10 67-29 21 4 40 11 59 22-7-22-21-39-41-51 18 2 35 7 53 14z"/>
<glyph glyph-name="youtube" unicode="&#57364;" d="M314 157l0-61c0-12-4-19-11-19-5 0-9 2-13 6l0 86c4 5 8 7 13 7 7 0 11-7 11-19z m97-1l0-13-26 0 0 13c0 13 4 20 13 20 8 0 13-7 13-20z m-276 63l30 0 0 26-89 0 0-26 30 0 0-163 29 0z m82-163l25 0 0 141-25 0 0-108c-6-8-11-12-16-12-4 0-6 2-6 6-1 1-1 4-1 10l0 104-25 0 0-112c0-9 1-16 2-20 2-7 8-11 17-11 9 0 19 6 29 17z m122 42l0 57c0 13 0 23-2 28-3 11-10 16-20 16-10 0-19-5-27-16l0 62-25 0 0-189 25 0 0 14c9-11 17-16 27-16 10 0 17 5 20 16 2 5 2 14 2 28z m97 3l0 4-26 0c0-10 0-16-1-18-1-6-5-10-11-10-9 0-13 7-13 20l0 25 51 0 0 29c0 15-3 26-8 33-7 10-17 15-30 15-13 0-23-5-31-15-5-7-8-18-8-33l0-49c0-15 3-26 9-33 7-10 17-15 31-15 13 0 24 5 30 15 4 5 6 10 6 16 1 1 1 7 1 16z m-174 261l0 60c0 13-4 20-12 20-8 0-12-7-12-20l0-60c0-13 4-20 12-20 8 0 12 7 12 20z m206-215c0-44-3-77-8-100-2-11-8-20-16-28-9-7-18-12-29-13-35-4-88-6-159-6-71 0-124 2-159 6-11 1-20 6-29 13-8 8-14 17-16 28-5 22-8 55-8 100 0 45 3 78 8 100 2 12 8 21 16 29 9 7 18 12 30 13 35 4 87 6 158 6 71 0 124-2 159-6 11-1 20-6 29-13 8-8 14-17 16-29 5-21 8-54 8-100z m-285 365l29 0-35-114 0-77-28 0 0 77c-3 14-9 34-18 61-7 19-13 37-18 53l30 0 20-75z m105-95l0-50c0-16-2-27-8-34-7-10-17-14-30-14-13 0-23 4-30 14-5 7-8 19-8 34l0 50c0 15 3 26 8 33 7 10 17 15 30 15 13 0 23-5 30-15 6-7 8-18 8-33z m96 46l0-142-26 0 0 15c-10-12-20-17-29-17-9 0-15 3-17 10-2 5-3 12-3 22l0 112 26 0 0-105c0-6 1-9 1-10 0-4 2-6 6-6 5 0 10 4 16 12l0 109z"/>
<glyph glyph-name="speaker-louder" unicode="&#57365;" d="M256 448l0-384-96 96-128 0 0 192 128 0z m149-11l-23-23c40-41 65-96 65-158 0-62-25-117-65-158l23-23c46 46 75 110 75 181 0 71-29 135-75 181z m-45-46l-22-22c28-29 46-69 46-113 0-44-18-84-46-113l22-22c35 34 56 82 56 135 0 53-21 101-56 135z m-45-45l-23-23c17-17 28-41 28-67 0-26-11-50-28-67l23-23c23 23 37 55 37 90 0 35-14 67-37 90z"/>
<glyph glyph-name="speaker-off" unicode="&#57366;" d="M288 448l0-384-96 96-160 0 0 192 160 0z m-256-416l-32 32 384 384 32-32z"/>
<glyph glyph-name="thumbnails" unicode="&#57368;" d="M146 155l0-54c0-8-2-15-8-20-5-5-12-8-19-8l-92 0c-7 0-14 3-19 8-5 5-8 12-8 20l0 54c0 8 3 15 8 20 5 5 12 8 19 8l92 0c7 0 14-3 19-8 6-5 8-12 8-20z m0 147l0-55c0-8-2-14-8-20-5-5-12-8-19-8l-92 0c-7 0-14 3-19 8-5 6-8 12-8 20l0 55c0 7 3 14 8 19 5 5 12 8 19 8l92 0c7 0 14-3 19-8 6-5 8-12 8-19z m183-147l0-54c0-8-3-15-8-20-5-5-12-8-19-8l-92 0c-7 0-14 3-19 8-5 5-8 12-8 20l0 54c0 8 3 15 8 20 5 5 12 8 19 8l92 0c7 0 14-3 19-8 5-5 8-12 8-20z m-183 293l0-55c0-7-2-14-8-19-5-6-12-8-19-8l-92 0c-7 0-14 2-19 8-5 5-8 12-8 19l0 55c0 8 3 14 8 19 5 6 12 8 19 8l92 0c7 0 14-2 19-8 6-5 8-11 8-19z m183-146l0-55c0-8-3-14-8-20-5-5-12-8-19-8l-92 0c-7 0-14 3-19 8-5 6-8 12-8 20l0 55c0 7 3 14 8 19 5 5 12 8 19 8l92 0c7 0 14-3 19-8 5-5 8-12 8-19z m183-147l0-54c0-8-3-15-8-20-5-5-12-8-19-8l-92 0c-7 0-14 3-19 8-6 5-8 12-8 20l0 54c0 8 2 15 8 20 5 5 12 8 19 8l92 0c7 0 14-3 19-8 5-5 8-12 8-20z m-183 293l0-55c0-7-3-14-8-19-5-6-12-8-19-8l-92 0c-7 0-14 2-19 8-5 5-8 12-8 19l0 55c0 8 3 14 8 19 5 6 12 8 19 8l92 0c7 0 14-2 19-8 5-5 8-11 8-19z m183-146l0-55c0-8-3-14-8-20-5-5-12-8-19-8l-92 0c-7 0-14 3-19 8-6 6-8 12-8 20l0 55c0 7 2 14 8 19 5 5 12 8 19 8l92 0c7 0 14-3 19-8 5-5 8-12 8-19z m0 146l0-55c0-7-3-14-8-19-5-6-12-8-19-8l-92 0c-7 0-14 2-19 8-6 5-8 12-8 19l0 55c0 8 2 14 8 19 5 6 12 8 19 8l92 0c7 0 14-2 19-8 5-5 8-11 8-19z"/>
<glyph glyph-name="list" unicode="&#57369;" d="M73 137l0-55c0-2-1-4-3-6-1-2-4-3-6-3l-55 0c-2 0-4 1-6 3-2 2-3 4-3 6l0 55c0 3 1 5 3 7 2 1 4 2 6 2l55 0c2 0 5-1 6-2 2-2 3-4 3-7z m0 110l0-55c0-2-1-5-3-6-1-2-4-3-6-3l-55 0c-2 0-4 1-6 3-2 1-3 4-3 6l0 55c0 2 1 4 3 6 2 2 4 3 6 3l55 0c2 0 5-1 6-3 2-2 3-4 3-6z m0 110l0-55c0-3-1-5-3-7-1-2-4-2-6-2l-55 0c-2 0-4 0-6 2-2 2-3 4-3 7l0 55c0 2 1 4 3 6 2 2 4 3 6 3l55 0c2 0 5-1 6-3 2-2 3-4 3-6z m439-220l0-55c0-2-1-4-3-6-2-2-4-3-6-3l-384 0c-3 0-5 1-7 3-1 2-2 4-2 6l0 55c0 3 1 5 2 7 2 1 4 2 7 2l384 0c2 0 4-1 6-2 2-2 3-4 3-7z m-439 329l0-55c0-2-1-4-3-6-1-2-4-3-6-3l-55 0c-2 0-4 1-6 3-2 2-3 4-3 6l0 55c0 3 1 5 3 7 2 2 4 2 6 2l55 0c2 0 5 0 6-2 2-2 3-4 3-7z m439-219l0-55c0-2-1-5-3-6-2-2-4-3-6-3l-384 0c-3 0-5 1-7 3-1 1-2 4-2 6l0 55c0 2 1 4 2 6 2 2 4 3 7 3l384 0c2 0 4-1 6-3 2-2 3-4 3-6z m0 110l0-55c0-3-1-5-3-7-2-2-4-2-6-2l-384 0c-3 0-5 0-7 2-1 2-2 4-2 7l0 55c0 2 1 4 2 6 2 2 4 3 7 3l384 0c2 0 4-1 6-3 2-2 3-4 3-6z m0 109l0-55c0-2-1-4-3-6-2-2-4-3-6-3l-384 0c-3 0-5 1-7 3-1 2-2 4-2 6l0 55c0 3 1 5 2 7 2 2 4 2 7 2l384 0c2 0 4 0 6-2 2-2 3-4 3-7z"/>
<glyph glyph-name="commercial" unicode="&#57370;" d="M395 459l-278 0c-10 0-21-11-21-22l0-384 139 0 0 64 42 0 0-64 139 0 0 384c0 11-11 22-21 22z m-171-299l-64 0 0 21 64 0z m0 64l-64 0 0 21 64 0z m0 64l-64 0 0 21 64 0z m0 64l-64 0 0 21 64 0z m128-192l-64 0 0 21 64 0z m0 64l-64 0 0 21 64 0z m0 64l-64 0 0 21 64 0z m0 64l-64 0 0 21 64 0z"/>
<glyph glyph-name="log-in" unicode="&#57371;" d="M375 256c0-5-2-9-6-13l-155-155c-4-4-8-6-13-6-5 0-9 2-13 6-3 3-5 8-5 13l0 82-128 0c-5 0-9 2-13 5-4 4-5 8-5 13l0 110c0 5 1 9 5 13 4 3 8 5 13 5l128 0 0 82c0 5 2 10 5 13 4 4 8 6 13 6 5 0 9-2 13-6l155-155c4-4 6-8 6-13z m100 101l0-202c0-22-8-42-24-58-16-16-35-24-58-24l-91 0c-3 0-5 1-7 3-2 2-2 4-2 6 0 1-1 3-1 6 0 3 0 6 0 8 0 2 1 4 1 6 0 3 1 5 3 6 1 1 3 2 6 2l91 0c13 0 23 4 32 13 9 9 14 20 14 32l0 202c0 12-5 23-14 32-9 9-19 13-32 13l-89 0c0 0-1 0-3 1-2 0-4 0-4 0 0 1 0 1-2 2-1 1-2 2-2 3 0 1 0 2 0 3 0 1-1 3-1 6 0 3 0 6 0 8 0 2 1 4 1 6 0 3 1 5 3 6 1 1 3 2 6 2l91 0c23 0 42-8 58-24 16-16 24-36 24-58z"/>
<glyph glyph-name="log-out" unicode="&#57372;" d="M201 101c0-1 0-3 0-6 1-3 1-6 1-8-1-2-1-4-1-6-1-3-2-5-3-6-2-1-4-2-6-2l-91 0c-23 0-42 8-59 24-16 16-24 36-24 58l0 202c0 22 8 42 24 58 17 16 36 24 59 24l91 0c2 0 5-1 6-3 2-2 3-4 3-6 0-1 0-3 0-6 1-3 1-6 1-8-1-2-1-4-1-6-1-3-2-5-3-6-2-1-4-2-6-2l-91 0c-13 0-24-4-33-13-9-9-13-20-13-32l0-202c0-12 4-23 13-32 9-9 20-13 33-13l89 0c0 0 1 0 3-1 2 0 3 0 3 0 0-1 1-1 3-2 1-1 2-2 2-3-1-1 0-2 0-3z m265 155c0-5-2-9-5-13l-156-155c-3-4-7-6-12-6-5 0-10 2-13 6-4 3-6 8-6 13l0 82-128 0c-5 0-9 2-13 5-3 4-5 8-5 13l0 110c0 5 2 9 5 13 4 3 8 5 13 5l128 0 0 82c0 5 2 10 6 13 3 4 8 6 13 6 5 0 9-2 12-6l156-155c3-4 5-8 5-13z"/>
<glyph glyph-name="mail" unicode="&#57373;" d="M32 416l0-320 448 0 0 320z m384-32l-160-132-160 132z m-352-32l126-96-126-96z m32-224l127 103 33-25 33 25 127-103z m352 32l-126 96 126 96z"/>
<glyph glyph-name="print" unicode="&#57374;" d="M424 384c28 0 56-19 56-55l0-131c0-31-28-54-56-54l-40 0 0-112-256 0 0 112-40 0c-28 0-56 24-56 62l0 123c0 38 28 55 56 55l40 0 0 64 256 0 0-64z m-56-336l0 176-224 0 0-176z m0 336l0 48-224 0 0-48z m48-64l0 16-17 0 0-16z m-256-144l0 16 192 0 0-16z m0-48l0 16 192 0 0-16z m0-48l0 16 192 0 0-16z"/>
<glyph glyph-name="power-off" unicode="&#57375;" d="M256 256c-18 0-32 14-32 32l0 160c0 18 14 32 32 32 18 0 32-14 32-32l0-160c0-18-14-32-32-32z m123 187c61-40 101-109 101-187 0-124-100-224-224-224-124 0-224 100-224 224 0 78 40 147 101 187 5 3 11 5 17 5 18 0 32-14 32-32 0-6-2-12-5-17-2-3-4-6-7-8-1-1-3-2-4-3-8-6-16-12-23-19-30-30-47-70-47-113 0-43 17-83 47-113 30-30 70-47 113-47 43 0 83 17 113 47 30 30 47 70 47 113 0 43-17 83-47 113-7 7-15 13-23 19-1 1-3 2-4 3-3 2-5 5-7 8-3 5-5 11-5 17 0 18 14 32 32 32 6 0 12-2 17-5z"/>
<glyph glyph-name="instagram" unicode="&#57378;" d="M389 256c0 9-1 17-3 26 0 0 90 0 90 0 0 0 0-177 0-177 0-19-6-35-20-49-13-13-29-20-48-20 0 0-304 0-304 0-19 0-35 7-48 20-14 14-20 30-20 49 0 0 0 177 0 177 0 0 89 0 89 0-1-11-2-20-2-26 0-36 13-67 39-94 26-26 57-39 94-39 36 0 67 13 94 39 26 27 39 58 39 94m19 220c19 0 35-6 48-20 14-13 20-29 20-48 0 0 0-75 0-75 0 0-111 0-111 0-27 37-63 56-109 56-47 0-83-19-109-56 0 0-111 0-111 0 0 0 0 75 0 75 0 19 6 35 20 48 13 14 29 20 48 20 0 0 304 0 304 0m32-85c0 0 0 37 0 37 0 8-4 12-12 12 0 0-37 0-37 0-8 0-12-4-12-12 0 0 0-37 0-37 0-3 1-5 3-8 3-3 6-4 9-4 0 0 37 0 37 0 8 0 12 4 12 12m-102-135c0-23-8-42-24-58-16-16-35-24-58-24-23 0-42 8-58 24-16 16-24 35-24 58 0 23 8 43 24 58 16 16 35 24 58 24 23 0 42-8 58-24 16-15 24-35 24-58"/>
<glyph glyph-name="pinterest" unicode="&#57379;" d="M222 174c-9-44-19-80-29-108-11-28-28-50-50-66-2 25-3 46-3 61-1 16 1 35 5 57 5 22 8 39 12 53 3 14 8 31 13 51 5 20 10 37 12 50-8 18-11 38-9 60 1 22 9 40 24 54 15 14 32 18 51 10 13-5 21-15 22-30 2-15-1-31-6-49-6-17-12-35-17-52-5-18-6-33-2-46 4-14 15-22 33-25 23-5 43 1 61 19 19 18 31 40 38 67 8 27 9 55 6 84-3 28-13 50-28 65-21 22-47 34-77 36-30 2-58-4-83-17-26-13-46-33-62-60-16-27-21-56-16-87 1-7 5-16 11-27 6-10 10-18 11-24 1-5-2-17-9-34-50 12-74 51-72 118 2 47 20 87 54 120 35 32 74 52 119 57 56 6 106-4 149-29 43-26 67-63 74-112 9-60-3-115-34-163-32-48-75-70-129-66-8 1-15 3-22 5-7 2-12 5-15 7-3 2-9 5-16 10-7 5-12 9-16 11"/>
<glyph glyph-name="wordpress" unicode="&#57380;" d="M52 369c38 71 115 118 204 118 58 0 110-24 150-59-11 2-24 0-36-7-30-17-40-66-1-90 24-15 32-53 32-76-1-23-56-128-56-128l-54 184c0 0-2 13-2 17 0 4 2 10 5 13 2 3 5 7 8 7l26 0 0 21-139 0 0-21 5 0c4 0 9-6 13-10 5-6 11-25 19-45l20-67-43-100-48 200c0 0 2 14 5 16 1 2 4 6 8 6l1 0 0 21z m27-35c0 0-11 14-23 14l-12 0c-12-25-18-60-18-91 0-95 58-176 141-211z m375 36c5-20 4-46-5-73-22-72-77-202-99-252 81 36 136 116 136 209 0 43-11 82-32 116z m-193-194l-59-144c17-4 35-7 54-7 19 0 38 3 56 7z"/>
<glyph glyph-name="file" unicode="&#57382;" d="M64 469l0-448 363 0 0 448z m320-405l-277 0 0 363 277 0z m-43 299l-128 0 0-43 128 0z m0-64l-192 0 0-22 192 0z m0-43l-192 0 0-21 192 0z m0-43l-192 0 0-21 192 0z m-64-64l64 0 0 22-64 0z"/>
<glyph glyph-name="audio-off" unicode="&#57383;" d="M366 411l0-310c0-5-2-10-6-13-3-4-8-6-13-6-5 0-9 2-12 6l-96 95-74 0c-5 0-10 2-13 5-4 4-6 8-6 13l0 110c0 5 2 9 6 13 3 3 8 5 13 5l74 0 96 95c3 4 7 6 12 6 5 0 10-2 13-6 4-3 6-8 6-13z"/>
<glyph glyph-name="pdf" unicode="&#57384;" d="M211 195l-26 0 0-47 15 0 0 15 11 0c11 0 17 7 17 16 0 9-6 16-17 16z m-2-20l-9 0 0 8 9 0c2 0 4-1 4-4 0-2-2-4-4-4z m47 20l-21 0 0-47 21 0c15 0 26 9 26 24 0 15-11 23-26 23z m0-35l-7 0 0 23 7 0c8 0 12-5 12-11 0-6-5-12-12-12z m35-12l14 0 0 18 21 0 0 12-21 0 0 5 22 0 0 12-36 0z m120 300l0 21c0 4-4 8-9 8l-168 0-133-132 0-302c0-4 4-8 9-8l292 0c5 0 9 4 9 8z m-259-362l0 241 91 0c5 0 9 4 9 9l0 90 108 0 0-340z"/>
<glyph glyph-name="font" unicode="&#57385;" d="M418 293l-45 0-61-162-103 274-73 0-113-298 73 0 21 60 107 0 21-60 103 0 13 37 67 0 13-37 48 0z m-285-72l37 108 38-108z m238-43l23 67 24-67z"/>
<glyph glyph-name="css" unicode="&#57386;" d="M96 448l320 0 0-64-128-64 115 0-19-192-128-32-128 32-10 96 74 0 7-48 57-16 64 16 8 80-213 0-4 45 37 19 129 64-175 0z m-96 64l64-448 192-64 192 64 64 448z"/>
<glyph glyph-name="html" unicode="&#57387;" d="M96 448l320 0-6-64-223 0 5-64 211 0-19-192-128-32-128 32-10 96 74 0 7-48 57-16 64 16 8 80-213 0z m-96 64l64-448 192-64 192 64 64 448z"/>
<glyph glyph-name="js" unicode="&#57388;" d="M468 462c-9 8-25 18-52 18l-216 0c-74 0-120-56-120-96l0-224c0-7-5-18-12-32l-4 0c-42 0-64-32-64-64 0-32 22-64 64-64l240 0c57 0 64 158 64 160l0 192 48 0c43 0 70 35 70 68 0 16-6 31-18 42m-132-67c0-4 0-8 0-11l0-224c0-42-18-121-32-128l-240 0c-9 0-15 3-20 6-8 7-12 17-12 26 0 12 6 25 20 30 3 1 7 2 12 2l208 0c9 0 16 7 16 16 0 9-7 16-16 16l-169 0c6 12 9 22 9 32l0 224c0 22 31 64 88 64l143 0c-8-17-8-36-7-53m108 1c-5-6-14-12-28-12l-48 0c0 4 0 8 0 12-1 16-1 34 7 43 6 6 16 9 31 9l10 0c24 0 38-10 38-28 0-9-3-18-10-24"/>
<glyph glyph-name="aspx-1" unicode="&#57389;" d="M165 122l-14-13c-2-2-4-3-6-3-2 0-4 1-6 3l-124 124c-2 2-3 4-3 6 0 2 1 4 3 6l124 124c2 2 4 3 6 3 2 0 4-1 6-3l14-13c1-2 2-4 2-6 0-2-1-4-2-6l-105-105 105-105c1-2 2-4 2-6 0-2-1-4-2-6z m157 284l-99-344c-1-2-2-4-4-5-3-1-5-1-7-1l-16 5c-3 1-4 2-5 4-2 2-2 4-1 6l99 345c1 2 2 4 4 5 3 1 5 1 7 1l16-5c3-1 4-2 5-4 2-2 2-4 1-7z m175-173l-124-124c-2-2-4-3-6-3-2 0-4 1-6 3l-14 13c-1 2-2 4-2 6 0 2 1 4 2 6l105 105-105 105c-1 2-2 4-2 6 0 2 1 4 2 6l14 13c2 2 4 3 6 3 2 0 4-1 6-3l124-124c2-2 3-4 3-6 0-2-1-4-3-6z"/>
<glyph glyph-name="aspx" unicode="&#57390;" d="M336 416l-48-48 112-112-112-112 48-48 144 160z m-160 0l-144-160 144-160 48 48-112 112 112 112z"/>
<glyph glyph-name="file-1" unicode="&#57391;" d="M366 119l0 18c0 3-1 5-3 7-2 1-4 2-6 2l-202 0c-2 0-4-1-6-2-2-2-3-4-3-7l0-18c0-3 1-5 3-7 2-1 4-2 6-2l202 0c2 0 4 1 6 2 2 2 3 4 3 7z m0 73l0 18c0 3-1 5-3 7-2 2-4 2-6 2l-202 0c-2 0-4 0-6-2-2-2-3-4-3-7l0-18c0-3 1-5 3-7 2-1 4-2 6-2l202 0c2 0 4 1 6 2 2 2 3 4 3 7z m73 101l0-229c0-8-3-14-8-19-5-6-12-8-20-8l-310 0c-8 0-15 2-20 8-5 5-8 11-8 19l0 384c0 8 3 14 8 19 5 6 12 8 20 8l155 0 0-155c0-8 3-14 8-19 5-6 12-8 19-8z m-1 36l-145 0 0 146c15-3 28-9 37-19l89-89c10-10 16-22 19-38z"/>
<glyph glyph-name="image-1" unicode="&#57392;" d="M32 480l448 0 0-448-448 0z m-32-480l512 0 0 512-512 0z m64 448l384 0 0-320-384 0z"/>
<glyph glyph-name="audio-on" unicode="&#57393;" d="M238 411l0-310c0-5-2-10-6-13-3-4-8-6-13-6-5 0-9 2-12 6l-96 95-74 0c-5 0-10 2-13 5-4 4-6 8-6 13l0 110c0 5 2 9 6 13 3 3 8 5 13 5l74 0 96 95c3 4 7 6 12 6 5 0 10-2 13-6 4-3 6-8 6-13z m109-155c0-14-4-28-12-40-8-13-19-22-32-27-2-1-4-2-7-2-5 0-9 2-13 6-3 3-5 8-5 13 0 4 1 7 3 10 2 3 5 5 8 7 4 2 7 4 10 7 3 2 6 5 8 10 3 4 4 10 4 16 0 6-1 12-4 16-2 5-5 8-8 10-3 3-6 5-10 7-3 2-6 4-8 7-2 3-3 6-3 10 0 5 2 10 5 13 4 4 8 6 13 6 3 0 5-1 7-2 13-5 24-14 32-26 8-13 12-27 12-41z m74 0c0-29-9-56-25-81-16-24-37-42-64-54-2-1-5-1-7-1-5 0-10 2-13 5-4 4-6 8-6 13 0 8 4 13 11 17 11 6 18 10 22 13 14 10 25 23 33 38 8 16 12 32 12 50 0 18-4 34-12 50-8 15-19 28-33 38-4 3-11 7-22 13-7 4-11 9-11 17 0 5 2 9 6 13 3 3 8 5 13 5 2 0 5 0 7-1 27-12 48-30 64-54 16-25 25-52 25-81z m73 0c0-44-12-84-37-121-24-36-56-63-96-81-3-1-5-1-8-1-5 0-9 2-12 5-4 4-6 8-6 13 0 7 4 13 11 17 2 1 4 2 7 3 3 1 5 2 6 3 9 5 17 10 24 15 23 17 41 39 54 64 14 26 20 54 20 83 0 29-6 57-20 83-13 25-31 47-54 64-7 5-15 10-24 15-1 1-3 2-6 3-3 1-5 2-7 3-7 4-11 10-11 17 0 5 2 9 6 13 3 3 7 5 12 5 3 0 5 0 8-1 40-18 72-45 96-81 25-37 37-77 37-121z"/>
<glyph glyph-name="file-2" unicode="&#57395;" d="M3 516l-2 3c0 0 0 0 0 1 0 0 0 0 1 0l2-2 1 2c0 0 0 0 1 0 1 0 1 0 1 0 0-1 0-1 0-1l-2-3 2-2c0 0 0-1 0-1 0 0 0 0-1 0 0 0-1 0-1 0l-1 2-2-2c-1 0-1 0-1 0 0 0 0 1 0 1z m4 6c0 1 0 1 0 1 0 0 0 0 0 1-1 0-1 0-2 0 0 0-1 0-1-1 0 0-1-1-1-1l0-6c0-1 1-1 1-1 0-1 1-1 2-1 0 0 0 0 1 0 0 0 0 1 0 1 0 1 0 1 0 1 0 0 1 1 1 1 0 0 0 0 1 0 0 0 0 0 1 0 0-1 0-1 0-1 0-1 0-1 0-2-1 0-1-1-1-1-1 0-1-1-2-1 0 0-1 0-2 0 0 0-1 0-1 0-1 0-1 1-2 1 0 0 0 1-1 1 0 1 0 1 0 2l0 6c0 0 0 1 0 2 1 0 1 1 1 1 1 0 1 0 2 1 0 0 1 0 1 0 1 0 2 0 2 0 1-1 1-1 2-1 0 0 0-1 1-1 0-1 0-1 0-2 0 0 0-1 0-1-1 0-1 0-1 0-1 0-1 0-1 0 0 0-1 1-1 1z m-1-3c-1 0-1 0-1 0 0 0-1-1-1-1 0 0 0 0 0-1-1 0-1 0-1-1l0-3c0 0 0-1 0-1 0 0-1 0-1 0 0 0 0 0-1 0 0 0 0 1 0 1l0 7c0 0 0 1 0 1 1 0 1 0 1 0 0 0 1 0 1 0 0 0 0-1 0-1l0-1c0 1 0 1 1 1 0 0 0 0 0 1 0 0 1 0 1 0 0 0 0 0 1 0 0 0 1 0 1 0 0 0 0-1 0-1 0 0 0 0 0-1 0 0-1 0-1 0z m-1 2c0 0 1 0 1 0 1 0 1-1 2-1 0 0 0-1 0-1 1 0 1-1 1-1 0-1 0-1 0-1-1-1-1-1-1-1-1 0-1 0-1 0l-4 0c0-1 0-1 1-2 0 0 1 0 1 0 1 0 1 0 1 0 0 0 1 0 1 0 0 0 0 0 1 0 1 0 1-1 1-1 0 0-1 0-1 0 0 0 0 0 0-1-1 0-1 0-1 0-1 0-1 0-2 0 0 0-1 0-2 0 0 0-1 1-1 1 0 0-1 1-1 1 0 1 0 1 0 2l0 1c0 1 0 1 0 2 0 0 0 1 1 1 0 0 1 1 1 1 1 0 1 0 2 0z m1-4c0 0 0 1 0 1 0 0 0 1 0 1 0 0-1 0-1 0-1 0-1 0-1 0-1 0-1-1-1-1l0-1z m-2 4c1 0 1 0 2 0 0 0 1-1 1-1 0 0 1-1 1-1 0-1 0-1 0-2l0-4c0 0 0-1 0-1 0 0-1 0-1 0 0 0-1 0-1 0 0 0 0 1 0 1-1 0-1 0-1-1-1 0-1 0-2 0 0 0-1 0-1 0 0 0-1 0-1 0 0 1 0 1 0 1-1 1-1 1-1 1 0 1 1 1 1 2 0 0 0 0 1 1 0 0 0 0 1 0 1 0 1 0 2 0l1 0c0 1 0 1 0 1-1 0-1 0-1 1 0 0-1 0-1 0 0 0-1 0-1 0 0 0 0 0-1 0 0 0-1 0-1 0 0 0 0 0 0 1 0 0 1 1 1 1 0 0 1 0 1 0 0 0 1 0 1 0z m2-5l-1 0c0 0 0 0-1 0-1 0-1-1-1-1 0-1 0-1 0-1 0 0 1 0 1 0 1 0 1 0 1 0 0 0 0 1 0 1 1 0 1 0 1 0z m-3-1c0 0 0-1 1-1l1 0c1 0 1 0 1 0 0 0 0-1 0-1 0 0 0 0 0-1 0 0 0 0-1 0l-1 0c-1 0-2 0-2 1-1 0-1 1-1 2l0 9c0 1 0 1 0 1 1 0 1 0 1 0 0 0 1 0 1 0 0 0 0 0 0-1l0-3 3 0c0 0 0-1 0-1 0-1 0-1 0-1l-3 0z m5 11c0 0 0 0 1 0l0-13c0 0 0-1 0-1-1 0-1 0-1 0-1 0-1 0-1 0 0 0 0 1 0 1-1 0-1 0-1-1-1 0-1 0-2 0 0 0-1 0-1 0-1 0-1 1-1 1-1 0-1 1-1 1 0 1 0 1 0 2l0 1c0 1 0 1 0 2 0 0 0 1 1 1 0 0 0 1 1 1 0 0 1 0 1 0 1 0 1 0 2 0 0-1 0-1 0-1l0 6c0 0 1 0 1 0 0 0 0 0 1 0z m-5-10c0 0 0-1 0-1 0 0 0 0 1 0 0-1 0-1 0-1 0 0 1 0 1 0 1 0 1 0 1 1l0 2c0 1 0 1 0 1 0 0 0 0 0 1 0 0 0 0-1 0 0 0-1 0-1 0 0 0 0 0 0-1-1 0-1 0-1 0 0 0 0 0 0-1z m-1 10c1 0 1 0 1 0l0-6c1 0 1 0 1 1 1 0 1 0 2 0 0 0 1 0 1 0 1 0 1-1 1-1 1 0 1-1 1-1 0-1 0-1 0-2l0-1c0-1 0-1 0-2 0 0 0-1-1-1 0 0 0-1-1-1 0 0-1 0-1 0 0 0-1 0-1 0 0 0 0 0-1 0 0 0 0 1 0 1-1 0-1 0-1 0 0 0 0-1 0-1 0 0-1 0-1 0 0 0 0 0-1 0 0 0 0 1 0 1l0 13c1 0 1 0 1 0z m5-9c0 1 0 1 0 1 0 0-1 0-1 0 0 1 0 1 0 1 0 0-1 0-1 0-1 0-1 0-1 0 0-1 0-1 0-1-1 0-1 0-1-1l0-2c0 0 0 0 1 0 0-1 0-1 0-1 1 0 1 0 1 0 0 0 1 0 1 0 0 0 0 0 0 1 0 0 1 0 1 0 0 0 0 1 0 1z m-7 3c0 1 1 1 1 1 0 0 1 0 1 0l3-6 2 6c0 0 1 0 1 0 0 0 1 0 1-1l-3-7c0-1 0-2-1-2 0-1 0-1 0-2-1 0-1 0-2-1 0 0-1 0-2 0 0 0 0 0-1 0 0 0 0 0 0 1 0 0 0 0 0 1 0 0 1 0 1 0 1 0 1 0 1 0 1 1 1 1 1 1 0 1 0 1 0 2z m1 5c0 0 0 1 0 1 1 0 1 0 1 0l4 0c0 0 1 0 2 0 0 0 1-1 1-1 0 0 1-1 1-1 0-1 0-2 0-2 0-1 0-2 0-2 0-1-1-1-1-2 0 0-1 0-2-1 0 0-1 0-1 0l-2 0 0-4c0 0-1-1-1-1 0 0 0 0-1 0-1 0-1 1-1 1z m3-1l0-5 2 0c0 0 1 0 1 1 1 0 1 1 1 1l0 1c0 0 0 1-1 1 0 1-1 1-1 1z m-1-11c0 0 0-1 0-1 0 0 0 0-1 0 0 0 0 0-1 0 0 0 0 1 0 1l0 13c1 0 1 0 1 0 1 0 1 0 1 0l0-6c1 0 1 0 1 1 1 0 1 0 2 0 0 0 1 0 1 0 0 0 1-1 1-1 0 0 1-1 1-1 0-1 0-1 0-2l0-4c0 0 0-1 0-1-1 0-1 0-1 0 0 0-1 0-1 0 0 0 0 1 0 1l0 4c0 1 0 1-1 1 0 1 0 1 0 1-1 0-1 0-1 0 0 0-1 0-1 0 0-1-1-1-1-2z m3 4c0 1 0 1 0 2 0 0-1 0-1 0 0 0-1 0-1 0 0-1-1-1-1-2l0-4c0 0 0-1 0-1 0 0-1 0-1 0 0 0 0 0-1 0 0 0 0 1 0 1l0 7c0 0 0 1 0 1 1 0 1 0 1 0 0 0 1 0 1 0 0 0 0-1 0-1 0 0 1 0 1 1 1 0 1 0 2 0 0 0 1 0 1 0 1-1 1-1 1-2 0 1 1 1 1 2 1 0 1 0 2 0 0 0 1 0 1 0 1 0 1-1 1-1 1 0 1-1 1-1 0-1 0-1 0-2l0-4c0 0 0-1 0-1 0 0-1 0-1 0 0 0 0 0-1 0 0 0 0 1 0 1l0 4c0 1 0 1-1 2 0 0 0 0-1 0 0 0 0 0-1 0 0-1 0-1 0-2l0-4c0-1 0-1 0-1-1 0-1 0-1 0-1 0-1 0-1 0 0 0-1 0-1 1z m3 9c0 0 1 0 1 0 0-1 0-1 0-1 0-1 0-1 0-1-1 0-1 0-1 0l-3 0 0-11c0 0 0-1 0-1 0 0-1 0-1 0 0 0-1 0-1 0 0 0 0 1 0 1l0 11-3 0c0 0 0 0-1 0 0 0 0 0 0 1 0 0 0 0 0 1 1 0 1 0 1 0z m-7-5c1 0 1 0 1 0 0 0 0-1 0-1l0-7c0 0 0-1 0-1 0 0 0 0-1 0 0 0 0 0-1 0 0 0 0 1 0 1l0 7c0 0 0 1 0 1 1 0 1 0 1 0z m0 4c1 0 1 0 1 0 0 0 1 0 1-1 0 0-1 0-1-1 0 0 0 0-1 0 0 0-1 0-1 0 0 1 0 1 0 1 0 1 0 1 0 1 0 0 1 0 1 0z m4 1c0 0 1 0 1 0 1-1 1-1 2-1 0 0 0-1 1-1 0-1 0-2 0-2l0-6c0 0 0-1 0-2-1 0-1-1-1-1-1 0-1-1-2-1 0 0-1 0-1 0l-4 0c0 0 0 0-1 0 0 0 0 1 0 1l0 12c0 0 0 1 0 1 1 0 1 0 1 0z m-2-2l0-10 2 0c0 0 1 0 1 1 0 0 1 1 1 1l0 6c0 0-1 1-1 1 0 1-1 1-1 1z m1-12c-1 0-1 0-2 0 0 0-1 1-1 1 0 0-1 1-1 1 0 1 0 1 0 2l0 4c0 0 0 1 0 1 0 0 1 0 1 0 0 0 1 0 1 0 0 0 0-1 0-1l0-4c0-1 0-1 0-1 1 0 1 0 1 0 0-1 0-1 0-1 1 0 1 0 1 0 0 0 0 0 1 0 0 0 0 0 0 1 0 0 0 0 1 0 0 0 0 0 0 1l0 4c0 0 0 1 0 1 0 0 1 0 1 0 0 0 1 0 1 0 0 0 0-1 0-1l0-4c0-1 0-1 0-2 0 0-1-1-1-1 0 0-1-1-1-1-1 0-1 0-2 0z m-3 0c0 0 0 0-1 0 0 0 0 1 0 1l0 12c0 0 0 1 1 1 1 0 1 0 1 0 0 0 1-1 1-1l0-11 4 0c1 0 1 0 1 0 0 0 0-1 0-1 0 0 0 0 0-1 0 0 0 0-1 0z m1 1c0 0 0-1 0-1 0 0-1 0-1 0 0 0 0 0-1 0 0 0 0 1 0 1l0 7c0 0 0 1 0 1 1 0 1 0 1 0 0 0 1 0 1 0 0 0 0-1 0-1 0 0 1 0 1 1 1 0 1 0 2 0 0 0 1 0 1 0 0 0 1-1 1-1 0 0 1-1 1-1 0-1 0-1 0-2l0-4c0 0 0-1 0-1-1 0-1 0-1 0 0 0-1 0-1 0 0 0 0 1 0 1l0 4c0 1 0 1-1 1 0 1 0 1 0 1-1 0-1 0-1 0 0 0-1 0-1 0 0-1-1-1-1-2z m0 8l3 0c0 0 0-1 0-1 0-1 0-1 0-1l-3 0 0-6c0 0 0-1 0-1 0 0-1 0-1 0 0 0 0 0-1 0 0 0 0 1 0 1l0 10c0 0 0 1 0 1 0 1 1 1 1 1 0 1 1 1 1 1 0 0 1 0 1 0l1 0c1 0 1 0 1 0 0 0 0 0 0-1 0-1 0-1-1-1-1 0-1 0-1 0 0 0-1-1-1-1z m2 0c0 0 1 0 1 0 1 0 1-1 2-1 0 0 0-1 1-1 0-1 0-1 0-2l0-1c0-1 0-1 0-2-1 0-1-1-1-1-1 0-1-1-2-1 0 0-1 0-1 0-1 0-1 0-2 0 0 0-1 1-1 1-1 0-1 1-1 1 0 1 0 1 0 2l0 1c0 1 0 1 0 2 0 0 0 1 1 1 0 0 1 1 1 1 1 0 1 0 2 0z m1-4c0 1 0 1 0 1 0 1 0 1-1 1 0 0-1 0-1 0 0 0 0 0 0-1-1 0-1 0-1 0 0 0 0 0 0-1l0-1c0-1 0-1 0-1 0 0 0 0 1 0 0-1 0-1 0-1 0 0 1 0 1 0 1 0 1 0 1 1 0 0 0 0 0 1z m3-5c0 0 0 0-1 0 0 0 0 0 0 1l-4 7 0-7c0 0-1-1-1-1 0 0 0 0-1 0-1 0-1 1-1 1l0 12c0 0 0 1 1 1 1 0 1 0 1 0 1 0 1-1 1-1l4-8 0 8c0 0 0 1 0 1 1 0 1 0 1 0 0 0 1 0 1 0 0 0 0-1 0-1l0-12c0 0 0-1 0-1 0 0-1 0-1 0z m-7 13c1 0 1 0 1 0 0 0 1 0 1-1 0 0-1 0-1-1 0 0 0 0-1 0 0 0-1 0-1 0 0 1 0 1 0 1 0 1 0 1 0 1 0 0 1 0 1 0z m0-4c1 0 1 0 1 0 0 0 0-1 0-1l0-9c0 0 0-1 0-1 0-1 0-1 0-1-1-1-1-1-1-1-1 0-1 0-1 0-1 0-1 0-1 0-1 0-1 0-1 0 0 1 0 1 0 1 0 0 0 0 1 1 1 0 1 0 1 0 0 1 0 1 0 1l0 9c0 0 0 1 0 1 1 0 1 0 1 0z m3-9c-1 0-2 0-2 0-1 0-1 1-1 1-1 0-1 1-1 1 0 1 0 1 0 2l0 1c0 1 0 1 0 2 0 0 0 1 1 1 0 0 0 1 1 1 0 0 1 0 2 0 0 0 1 0 1 0 0 0 1 0 1 0 0 0 0-1 1-1 0 0 0-1 0-1-1 0-1 0-1 0 0-1 0-1 0-1 0 0 0 0 0 1-1 0-1 0-1 0-1 0-1 0-1 0-1 0-1 0-1 0-1-1-1-1-1-2l0-1c0-1 0-1 1-2 0 0 0 0 1 0 0 0 0 0 1 0 0 0 0 0 1 0 0 1 0 1 0 1 0 0 0 0 0-1 0 0 1 0 1 0 0 0 0 0 0-1 0 0-1-1-1-1 0 0-1 0-1 0 0 0-1 0-1 0z m94-46c0 8 8 8 8 8l193 0 75-76 0-295c0-8-8-8-8-8l-260 0c0 0-8 0-8 8z m17-354l0 345 173 0 0-52c0-17 17-17 17-17l52 0 0-276z m190 333l0-40 40 0z m-155-40l0-17 103 0 0 17z m0-69l0-17 172 0 0 17z m0-69l0-17 172 0 0 17z m0-69l0-17 172 0 0 17z"/>
<glyph glyph-name="goingto" unicode="&#57397;" d="M256 416l-96 96 192 0z m0-320l96-96-192 0z m-160 160l-96-96 0 192z m320 0l96 96 0-192z m-64 0c0-53-43-96-96-96-53 0-96 43-96 96 0 53 43 96 96 96 53 0 96-43 96-96z"/>
<glyph glyph-name="leavingfrom" unicode="&#57398;" d="M426 314c0 23-5 45-14 66-8 20-20 38-36 54-16 15-34 28-54 36-21 9-43 14-66 14-23 0-45-5-66-14-20-8-38-21-54-36-16-16-28-34-36-54-9-21-14-43-14-66 0-23 5-45 14-66 4-12 10-22 17-32l112-171c15-22 39-22 54 0l112 171c7 10 13 20 17 32 9 21 14 43 14 66z m-125-45c-12-12-28-19-45-19-17 0-33 7-45 19-12 12-18 28-18 45 0 17 6 32 18 44 12 12 28 19 45 19 17 0 33-7 45-19 12-12 18-27 18-44 0-17-6-33-18-45z"/>
<glyph glyph-name="goingto-1" unicode="&#57399;" d="M256 363c41 0 75 33 75 74 0 41-34 75-75 75-41 0-75-34-75-75 0-41 34-74 75-74z m0 128c29 0 53-24 53-54 0-29-24-53-53-53-29 0-53 24-53 53 0 30 24 54 53 54z m-43-289l0-85c0-6 5-10 11-10l64 0c6 0 11 4 11 10l0 85c47 25 64 90 64 139 0 6-5 11-11 11l-192 0c-6 0-11-5-11-11 0-49 17-114 64-139z m128 129c-2-38-16-95-57-112-4-2-7-6-7-10l0-81-42 0 0 81c0 4-3 8-7 10-41 17-55 74-57 112z m-85-256c-86 0-136 17-139 26 1 2 13 13 55 20 6 1 10 7 9 13-1 6-6 9-12 8-49-8-73-22-73-41 0-38 101-48 160-48 59 0 160 10 160 48 0 19-24 33-72 41-6 1-12-2-13-8-1-6 3-12 9-13 43-7 54-18 55-19-3-10-53-27-139-27z m87 112c-6 0-11-4-12-10-1-5 3-11 9-12 99-12 151-44 151-69 0-35-97-75-235-75-138 0-235 40-235 75 0 25 52 57 151 69 6 1 10 7 9 12-1 6-6 10-12 10-82-11-169-40-169-91 0-47 90-96 256-96 166 0 256 49 256 96 0 51-87 80-169 91z"/>
<glyph glyph-name="key-1" unicode="&#57400;" d="M238 366c0 15-6 28-16 39-11 10-24 16-39 16-15 0-28-6-39-16-11-11-16-24-16-39 0-8 2-16 5-24-7 4-15 5-23 5-16 0-28-5-39-16-11-10-16-23-16-38 0-16 5-29 16-39 11-11 23-16 39-16 15 0 28 5 39 16 10 10 16 23 16 39 0 8-2 15-6 23 8-3 16-5 24-5 15 0 28 5 39 16 10 11 16 23 16 39z m243-201c0-4-5-10-14-19-9-10-16-14-19-14-2 0-4 1-8 4-4 3-7 6-11 10-3 3-6 7-11 11-4 5-6 7-7 8l-27-28 63-63c5-5 8-12 8-19 0-8-4-16-11-23-8-8-15-11-23-11-8 0-15 2-20 8l-192 191c-33-25-68-37-104-37-31 0-56 10-76 29-19 20-29 45-29 76 0 30 9 60 27 89 18 30 42 53 71 71 29 18 59 27 89 27 31 0 57-9 76-29 20-19 30-45 30-76 0-36-13-70-38-104l102-101 27 27c-1 1-3 3-7 7-5 4-9 8-12 11-3 3-6 7-9 10-3 4-5 7-5 9 0 3 5 9 14 18 9 10 16 14 19 14 2 0 5-1 7-2 1-2 5-6 13-13 7-7 15-15 23-23 8-8 16-16 25-24 8-9 15-16 21-23 5-6 8-10 8-11z"/>
<glyph glyph-name="male-female" unicode="&#57401;" d="M157 411c0-23-19-42-43-42-23 0-42 19-42 42 0 23 19 42 42 42 24 0 43-19 43-42z m38-54l-152 0c-11 0-20-8-20-19l0-120c0-5 2-10 5-13 7-7 19-7 25 0 4 3 6 8 6 13l0 83c0 3 2 6 5 6 3 0 6-3 6-6l0-219c0-12 9-21 21-21 11 0 21 9 21 21l0 110c0 3 2 6 6 6 3 0 5-3 5-6l1 0 0-110c0-12 9-21 20-21 12 0 21 9 21 21l0 219c0 3 3 6 6 6 3 0 6-3 6-6l0-83c0-5 2-10 5-13 7-7 18-7 25 0 4 3 5 8 5 13l0 120c0 10-7 18-17 19z m218 54c0-24-19-43-43-43-23 0-42 19-42 43 0 23 19 42 42 42 24 0 43-19 43-42z m76-176l-28 106-1 2c-3 8-10 14-19 14l-134 0c-9 0-16-6-19-14l0-2c0 0-1 0-1 0l-28-106c0-1 0-2 0-3 0-10 8-18 18-18 8 0 14 5 17 11l21 78c1 2 3 4 6 4 2 0 4-2 5-4l0-1c0-1 0-1 0-1l0-1-33-124c-1-1-1-2-1-4 0-6 4-10 10-10l24 0 0-82c0-12 10-21 21-21 12 0 21 9 21 21l0 82 12 0 0-82c0-12 9-21 21-21 12 0 21 9 21 21l0 82 25 0c5 0 9 4 9 10 0 2 0 3-1 4l-33 124c0 1 0 1 0 2 0 3 2 5 6 5 2 0 4-2 5-4l21-78c3-6 9-11 17-11 10 0 18 8 18 18 0 1 0 2 0 3z"/>
<glyph glyph-name="packages" unicode="&#57402;" d="M461 410c14 0 26-6 36-16 10-10 15-22 15-36 0 0 0-281 0-281 0-15-5-27-15-37-10-9-22-14-36-14 0 0-26 0-26 0 0 0 0 384 0 384 0 0 26 0 26 0m-461-52c0 14 5 26 15 36 11 10 23 16 36 16 0 0 26 0 26 0 0 0 0-384 0-384 0 0-26 0-26 0-13 0-25 5-36 14-10 10-15 22-15 37 0 0 0 281 0 281m343 105c0 0 0-53 0-53 0 0 56 0 56 0 0 0 0-384 0-384 0 0-286 0-286 0 0 0 0 384 0 384 0 0 56 0 56 0 0 0 0 53 0 53 33 16 62 23 87 23 25 0 54-7 87-23m-31-53c0 0 0 33 0 33-17 9-36 13-56 13-18 0-37-4-56-13 0 0 0-33 0-33 0 0 112 0 112 0"/>
<glyph glyph-name="right-arrow" unicode="&#57403;" d="M234 474l-20-21 167-167-365 0 0-60 365 0-168-168 21-20c12-11 21-20 22-20 1 0 55 54 121 120l119 119-120 119c-66 65-120 118-120 118-1 0-10-9-22-20z"/>
<glyph glyph-name="minus" unicode="&#57405;" d="M64 224l0 64 384 0 0-64z"/>
<glyph glyph-name="minus-remove" unicode="&#57406;" d="M0 224l0 64 512 0 0-64z"/>
<glyph glyph-name="file-directory" unicode="&#57407;" d="M448 416c-16 0-168 0-176 0-8 0-16 8-16 16 0 8 0 0 0 16 0 16-16 32-32 32-16 0-144 0-160 0-16 0-32-16-32-32 0-16 0-352 0-352l448 0c0 0 0 272 0 288 0 16-16 32-32 32z m-224 0l-160 0c0 0 0 7 0 16 0 8 8 16 16 16 8 0 121 0 128 0 8 0 16-8 16-16 0-9 0-16 0-16z"/>
<glyph glyph-name="file-text" unicode="&#57408;" d="M288 384l-160 0 0-32 160 0z m64 96l-288 0 0-448 384 0 0 352z m64-416l-320 0 0 384 224 0 96-96z m-288 64l256 0 0 32-256 0z m0 64l256 0 0 32-256 0z m0 64l256 0 0 32-256 0z"/>
<glyph glyph-name="fb-round" unicode="&#57409;" d="M256 510c-140 0-254-114-254-254 0-140 114-254 254-254 140 0 254 114 254 254 0 140-114 254-254 254z m0-485c-128 0-231 103-231 231 0 128 103 231 231 231 127 0 231-103 231-231 0-128-104-231-231-231z m-39 309l0-29-29 0 0-49 29 0 0-147 49 0 0 147 48 0 8 49-56 0 0 24c0 13 4 25 22 25l36 0 0 48-51 0c-44 0-56-28-56-68z"/>
<glyph glyph-name="g-plus-round" unicode="&#57410;" d="M261 227l-13 10c-4 3-9 7-9 15 0 8 5 13 10 18 15 12 30 25 30 51 0 28-17 42-25 49l22 0 23 13-74 0c-20 0-44-3-65-20-15-13-23-32-23-48 0-28 22-57 60-57 4 0 8 0 12 1-2-5-4-8-4-14 0-11 6-18 11-25-16-1-47-3-69-16-21-13-28-32-28-45 0-26 25-51 78-51 62 0 95 34 95 68 0 25-15 37-31 51z m-47 41c-31 0-45 40-45 64 0 10 2 20 8 27 6 7 16 12 25 12 30 0 46-40 46-66 0-7-1-18-9-27-6-5-16-10-25-10z m0-145c-38 0-63 18-63 44 0 26 23 34 31 37 15 5 35 6 38 6 3 0 5 0 8 0 28-20 40-30 40-48 0-22-19-39-54-39z m140 182l-20 0 0-39-39 0 0-20 39 0 0-39 20 0 0 39 39 0 0 20-39 0z m-98 205c-140 0-254-114-254-254 0-140 114-254 254-254 140 0 254 114 254 254 0 140-114 254-254 254z m0-485c-128 0-231 103-231 231 0 128 103 231 231 231 127 0 231-103 231-231 0-128-104-231-231-231z"/>
<glyph glyph-name="in-round" unicode="&#57411;" d="M143 154l47 0 0 188-47 0z m24 251c-13 0-24-11-24-24 0-13 11-23 24-23 13 0 23 10 23 23 0 13-10 24-23 24z m164-63c-40-1-60-30-62-31l0 31-47 0 0-188 47 0 0 110c0 4 10 36 47 31 20-1 30-28 31-31l0-110 47 0 0 130c-2 19-11 57-63 58z m-75 168c-140 0-254-114-254-254 0-140 114-254 254-254 141 0 254 114 254 254 0 140-113 254-254 254z m0-485c-127 0-231 103-231 231 0 128 104 231 231 231 128 0 231-103 231-231 0-128-103-231-231-231z"/>
<glyph glyph-name="mail-round" unicode="&#57412;" d="M392 361l-269 0c-6 0-11-5-11-11l0-184c0-6 5-11 11-11l269 0c6 0 11 5 11 11l0 184c0 6-5 11-11 11z m-35-22l-100-68-99 68z m-224-9l74-50-74-85z m13-153l79 90 26-18c2-1 4-2 6-2 3 0 5 1 7 2l26 18 79-90z m236 18l-74 85 74 50z m-126 315c-140 0-254-114-254-254 0-140 114-254 254-254 140 0 254 114 254 254 0 140-114 254-254 254z m0-485c-127 0-231 103-231 231 0 128 104 231 231 231 128 0 231-103 231-231 0-128-103-231-231-231z"/>
<glyph glyph-name="share-round" unicode="&#57413;" d="M256 509c-139 0-252-113-252-253 0-140 113-253 252-253 140 0 253 113 253 253 0 140-113 253-253 253z m0-479c-124 0-226 101-226 226 0 125 102 226 226 226 125 0 227-101 227-226 0-125-102-226-227-226z m58 181c-11 0-22-5-29-13l-102 52c0 2 0 4 0 6 0 2 0 4 0 6l102 52c7-8 18-13 29-13 23 0 41 18 41 41 0 22-18 40-41 40-22 0-40-18-40-40 0-2 0-4 0-5l-103-52c-7 7-17 12-28 12-23 0-41-19-41-41 0-22 18-41 41-41 11 0 21 5 29 13l102-52c0-2 0-4 0-6 0-22 18-40 40-40 23 0 41 18 41 40 0 23-18 41-41 41z"/>
<glyph glyph-name="twt-round" unicode="&#57414;" d="M385 368c-11-7-23-12-35-14-11 12-25 19-41 19-31 1-57-25-57-58 0-5 1-9 2-14-47 3-88 28-116 64-5-9-7-19-7-30 0-21 9-39 25-50-10 0-18 3-26 8l0-1c0-29 19-53 45-59-5-1-10-2-15-2-3 0-7 0-10 1 7-24 28-41 52-42-19-16-43-25-69-25-5 0-9 0-14 1 25-17 54-27 86-27 103 0 160 90 160 168 0 2 0 5 0 7 11 8 20 19 28 30-10-4-21-7-33-9 12 8 21 19 25 33z m-129 142c-140 0-254-114-254-254 0-140 114-254 254-254 140 0 254 114 254 254 0 140-114 254-254 254z m0-485c-128 0-231 103-231 231 0 128 103 231 231 231 128 0 231-103 231-231 0-128-103-231-231-231z"/>
<glyph glyph-name="url-round" unicode="&#57415;" d="M256 510c-140 0-254-114-254-254 0-140 114-254 254-254 140 0 254 114 254 254 0 140-114 254-254 254z m0-485c-128 0-231 103-231 231 0 128 103 231 231 231 127 0 231-103 231-231 0-128-104-231-231-231z m-101 211c0-12-2-20-7-25-4-6-12-9-22-9-11 0-18 3-23 8-5 6-7 14-7 26l0 90-31 0 0-95c0-17 5-30 16-40 10-10 25-15 44-15 13 0 24 2 33 7 9 4 16 10 21 19 5 8 7 17 7 28l0 96-31 0z m159 23c5 6 7 14 7 23 0 15-5 26-14 33-10 8-25 11-45 11l-43 0 0-148 31 0 0 57 17 0 35-57 35 0c-7 10-21 31-44 65 9 4 16 9 21 16z m-32 7c-5-4-12-5-22-5l-10 0 0 40 10 0c10 0 17-2 22-5 5-3 7-8 7-15 0-7-2-12-7-15z m101-62l0 122-31 0 0-148 91 0 0 26z"/>
<glyph glyph-name="image-box" unicode="&#57419;" d="M5 505l0-501 502 0 0 501z m470-470l-438 0 0 439 438 0z m-62 208l-50 90-67-145-40 40c0 0-55-20-73-52-29 16-45 0-45 0l-39-47 314 0z m-181 67c0-26-21-47-47-47-26 0-47 21-47 47 0 26 21 47 47 47 26 0 47-21 47-47z"/>
<glyph glyph-name="url-link-round" unicode="&#57420;" d="M256 510c-140 0-254-114-254-254 0-140 114-254 254-254 140 0 254 114 254 254 0 140-114 254-254 254z m0-485c-128 0-231 103-231 231 0 128 103 231 231 231 127 0 231-103 231-231 0-128-104-231-231-231z m-32 160l-12-12c-11-10-28-10-39 0-5 5-8 12-8 19 0 7 3 14 8 19l45 44c9 10 27 23 40 11 6-6 15-6 21 0 6 6 6 15 0 21-22 21-54 17-82-10l-45-45c-11-11-17-25-17-40 0-15 6-29 17-40 11-11 26-17 40-17 15 0 29 6 41 17l12 12c6 6 6 15 0 21-6 6-15 6-21 0z m136 173c-23 23-56 25-78 3l-15-15c-6-6-6-15 0-21 6-6 15-6 21 0l15 15c12 11 26 7 36-3 5-5 8-12 8-19 0-7-3-14-8-19l-48-47c-22-22-32-12-37-7-6 6-15 5-21 0-6-6-6-16 0-22 10-10 22-14 34-14 15 0 30 7 45 22l48 47c11 11 17 25 17 40 0 15-6 30-17 40z"/>
<glyph glyph-name="close-round" unicode="&#57421;" d="M256 510c-140 0-254-114-254-254 0-140 114-254 254-254 140 0 254 114 254 254 0 140-114 254-254 254z m0-485c-128 0-231 103-231 231 0 128 103 231 231 231 127 0 231-103 231-231 0-128-104-231-231-231z m22 231l70 70c7 6 7 16 0 23-6 6-17 6-23 0l-70-70-69 69c-6 6-16 6-23 0-6-7-6-17 0-23l69-69-69-70c-7-6-7-16 0-23 6-6 17-6 23 0l69 70 69-69c7-7 17-7 23 0 7 6 7 16 0 23z"/>
<glyph glyph-name="add-round" unicode="&#57424;" d="M435 436c-99 99-260 98-359-1-99-99-99-260 0-359 100-99 261-99 360 1 99 99 99 260-1 359z m-30-329c-82-82-216-82-298 0-82 82-82 215 0 297 82 83 215 83 298 1 82-82 82-216 0-298z m-32 171l-95 0 0 95c-1 12-10 22-22 22-12 0-22-10-22-22l0-95-95-1c-13 0-22-9-22-21 0-6 2-12 6-16 4-4 10-6 16-6l95 0 0-95c0-6 3-12 7-16 4-4 9-6 15-6 12 0 22 10 22 22l0 95 95 0c12 0 22 10 22 22 0 12-10 22-22 22z"/>
<glyph glyph-name="delete-1" unicode="&#57425;" d="M422 450l-68 0 0 44c0 9-7 16-16 16-1 0-1 0-1-1-1 1-1 1-2 1l-161 0c-9 0-16-7-16-16l0-44-68 0c-20 0-35-15-35-34l0-57 30 0 0-323c0-19 15-34 35-34l272 0c20 0 35 15 35 34l0 323 30 0 0 57c0 19-15 34-35 34z m-233 28l134 0 0-28-134 0z m206-442c0-2-1-2-3-2l-272 0c-2 0-3 0-3 2l0 323 278 0z m30 354l-338 0 0 26c0 2 1 3 3 3l332 0c2 0 3-1 3-3z m-80-68l-31 0 0-260 31 0z m-73 0l-32 0 0-260 32 0z m-73 0l-32 0 0-260 32 0z"/>
<glyph glyph-name="info-round" unicode="&#57426;" d="M282 133c0 5-1 11-1 17 0 0-1 155-1 157l-15 0c-8-9-17-15-24-19-11-5-24-8-39-10l0-12c11 0 18-1 22-3 4-1 7-3 9-5 1-5 2-10 2-14 0 0 1-64 0-84 0-4 0-7 0-9l0-3c0-6-1-11-2-13-1-2-4-3-7-4l-25-4 1-14c2 0 7 1 14 1 6 1 13 1 20 1 24 1 44 0 59 0 4 0 7 0 10 0 1 0 4 0 8 0l0 12c-2 1-5 1-9 2-10 1-17 3-22 4z m150 307c-102 96-263 93-360-8-96-101-93-262 8-359 102-97 263-93 360 8 96 101 93 262-8 359z m-24-329c-80-84-214-87-297-7-84 80-87 214-7 298 80 83 214 86 297 6 84-80 87-213 7-297z m-151 231c16 0 29 13 29 28 0 16-13 29-29 29-15 0-28-13-28-29 0-15 13-28 28-28z"/>
<glyph glyph-name="minus-round" unicode="&#57427;" d="M434 437c-100 98-261 97-359-3-99-100-97-261 3-359 100-98 262-97 360 3 98 100 96 261-4 359z m-27-328c-82-83-215-85-298-3-83 81-85 215-3 297 81 83 215 85 298 3 83-81 84-215 3-297z m-34 167l-233 0c-11 0-20-9-20-21 0-11 9-20 20-20l233 0c11 0 20 9 20 20 0 12-9 21-20 21z"/>
<glyph glyph-name="edit-line" unicode="&#57428;" d="M448 359l52 52c7 7 10 13 10 19 0 5-3 10-7 15l-53 52c-6 7-14 11-22 12-2 1-4 1-6 1-5 0-11-2-15-6l-52-52-328-327c-1-1-2-4-3-9l-21-93c-1-2-1-4-1-5 0-4 2-8 5-12 3-2 7-4 11-4 0 0 1 0 1 0l491 0 0 30-389 0z m-23 115l45-45-34-35-46 46z m-59-58l46-45-285-285-45 46z m-311-312l3 4 45-45-3-4-60-15z"/>
<glyph glyph-name="open-in-new-tab" unicode="&#57429;" d="M464 510l-142 0 0-53 97 0-283-278 39-37 282 278 0-97 54 0 0 140c0 26-21 47-47 47z m-7-454l-401 0 0 401 212 0 0 53-219 0c-26 0-47-21-47-47l0-414c0-26 21-47 47-47l415 0c26 0 47 21 47 47l0 220-54 0z"/>
<glyph glyph-name="dollar-round" unicode="&#57430;" d="M256 512c-141 0-256-115-256-256 0-141 115-256 256-256 141 0 256 115 256 256 0 141-115 256-256 256z m0-480c-123 0-224 100-224 224 0 123 101 224 224 224 124 0 224-101 224-224 0-124-100-224-224-224z m80 214c6-10 9-22 9-36 0-21-7-39-19-53-13-14-31-22-55-25l0-36-30 0 0 36c-40 4-64 27-74 69l47 12c5-26 19-39 43-39 12 0 20 3 26 8 5 6 8 13 8 21 0 8-3 14-8 19-6 4-18 9-36 16-17 6-30 11-39 17-10 6-17 13-23 24-6 10-9 22-9 35 0 18 5 34 16 48 10 14 27 23 49 26l0 28 30 0 0-28c34-4 56-23 66-57l-42-18c-8 24-20 36-37 36-9 0-16-3-21-8-5-5-8-12-8-19 0-8 3-14 8-18 5-4 15-9 32-15 18-7 32-13 42-19 10-5 18-14 25-24z"/>
<glyph glyph-name="rating-excellent" unicode="&#57439;" d="M171 313l-3-23c0-1 0-2 1-3 1-1 3-1 4 0l19 10 19-10c1 0 1-1 2-1 1 0 1 1 2 1 1 1 1 2 1 3l-4 23 16 16c1 1 1 2 1 4 0 1-1 2-3 2l-21 3-10 21c-1 1-2 2-3 2-1 0-2-1-3-2l-10-21-21-3c-2 0-3-1-3-2 0-2 0-3 1-4z m262 119c-98 98-256 98-354 0-97-97-97-255 0-352 98-98 256-98 354 0 97 97 97 255 0 352z m-27-325c-83-82-217-82-299 0-83 82-83 216 0 298 82 82 216 82 299 0 82-82 82-216 0-298z m-102 206l-4-23c0-1 1-2 2-3 1-1 2-1 3 0l19 10 20-10c0-1 1-1 1-1 1 0 2 1 2 1 1 1 2 2 2 3l-4 23 16 16c1 1 1 2 1 4-1 1-2 2-3 2l-22 3-10 21c0 1-1 2-3 2-1 0-2-1-3-2l-9-21-22-3c-1 0-2-1-3-2 0-2 0-3 1-4z m103-95c-1 2-3 3-5 3l-292 1c-2 0-4-2-5-3-2-2-2-5-1-7 15-56 68-111 152-108 85 3 135 52 152 108 1 2 1 4-1 6z"/>
<glyph glyph-name="rating-good" unicode="&#57440;" d="M192 294c16 0 29 13 29 30 0 16-13 29-29 29-16 0-29-13-29-29 0-17 13-30 29-30z m132 0c16 0 29 13 29 30 0 16-13 29-29 29-16 0-29-13-29-29 0-17 13-30 29-30z m32-71c-7 3-15-1-18-8-14-31-46-51-82-51-37 0-69 20-83 51-2 6-7 9-13 9-1 0-3 0-5-1-7-3-11-11-8-19 18-42 60-69 109-69 47 0 90 27 108 69 3 7 0 16-8 19z m76 209c-97 98-256 98-353 0-97-97-97-255 0-352 97-98 256-98 353 0 97 97 97 255 0 352z m-27-325c-82-82-216-82-299 0-82 82-82 216 0 298 83 82 217 82 299 0 82-82 82-216 0-298z"/>
<glyph glyph-name="rating-average" unicode="&#57441;" d="M192 294c16 0 29 13 29 30 0 16-13 29-29 29-16 0-29-13-29-29 0-17 13-30 29-30z m241 138c-98 98-256 98-354 0-97-97-97-255 0-352 98-98 256-98 354 0 97 97 97 255 0 352z m-27-325c-83-82-217-82-299 0-83 82-83 216 0 298 82 82 216 82 299 0 82-82 82-216 0-298z m-82 246c-16 0-29-13-29-29 0-17 13-30 29-30 17 0 30 13 30 30 0 16-13 29-30 29z m10-159l-156 0c-9 0-16-7-16-16 0-9 7-16 16-16l156 0c9 0 16 7 16 16 0 9-7 16-16 16z"/>
<glyph glyph-name="play-circle-solid" unicode="&#57443;" d="M256 475c40 0 77-9 110-29 34-20 60-46 80-80 20-33 29-70 29-110 0-40-9-77-29-110-20-34-46-60-80-80-33-20-70-29-110-29-40 0-77 9-110 29-34 20-60 46-80 80-20 33-29 70-29 110 0 40 9 77 29 110 20 34 46 60 80 80 33 20 70 29 110 29z m110-235c6 4 9 9 9 16 0 7-3 12-9 16l-156 91c-6 4-12 4-18 0-6-3-9-9-9-16l0-182c0-7 3-13 9-16 3-2 6-3 9-3 3 0 6 1 9 3z"/>
<glyph glyph-name="play-circle-line" unicode="&#57444;" d="M375 256c0-7-3-12-9-16l-156-91c-3-2-6-3-9-3-3 0-6 1-9 3-6 3-9 9-9 16l0 182c0 7 3 13 9 16 6 4 12 4 18 0l156-91c6-4 9-9 9-16z m36 0c0 28-7 54-20 78-14 24-33 43-57 57-24 13-50 20-78 20-28 0-54-7-78-20-24-14-43-33-57-57-13-24-20-50-20-78 0-28 7-54 20-78 14-24 33-43 57-57 24-13 50-20 78-20 28 0 54 7 78 20 24 14 43 33 57 57 13 24 20 50 20 78z m64 0c0-40-9-77-29-110-20-34-46-60-80-80-33-20-70-29-110-29-40 0-77 9-110 29-34 20-60 46-80 80-20 33-29 70-29 110 0 40 9 77 29 110 20 34 46 60 80 80 33 20 70 29 110 29 40 0 77-9 110-29 34-20 60-46 80-80 20-33 29-70 29-110z"/>
<glyph glyph-name="laugage" unicode="&#98;" d="M8 378l0-307c0-12 9-22 21-22l73 0 0 350-73 0c-12 0-21-9-21-21z m475 21l-73 0 0-350 73 0c12 0 21 10 21 22l0 307c0 12-9 21-21 21z m-264-77c0 6-4 11-10 11-5 0-10-5-10-11 0-6 5-11 10-11 6 0 10 5 10 11z m-89-273l252 0 0 350-252 0z m52 302l51 11 95-100-62-65-95 100z m-6 86c0 12 9 22 20 22l120 0c11 0 20-10 20-22l0-23 39 0 0 23c0 34-27 62-59 62l-120 0c-32 0-59-28-59-62l0-23 39 0z"/>
<glyph glyph-name="arrow-r" unicode="&#67;" d="M418 263l-243 244c-2 2-4 3-7 3-3 0-5-1-7-3l-67-67c-2-2-3-5-3-8 0-2 1-5 3-7l168-169-168-169c-4-4-4-11 0-15l67-67c4-4 10-4 14 0l243 244c4 4 4 10 0 14z"/>
<glyph glyph-name="arrow-d" unicode="&#68;" d="M507 351l-67 67c-2 2-5 3-8 3-2 0-5-1-7-3l-169-168-169 168c-4 4-11 4-15 0l-67-67c-4-4-4-10 0-14l244-243c4-4 10-4 14 0l244 243c2 2 3 4 3 7 0 3-1 5-3 7z"/>
<glyph glyph-name="check-mark-2-1" unicode="&#46;" d="M448 440c17-13 22-39 9-57l-207-302c-13-18-37-22-54-9-17 13-137 147-137 147-15 16-15 42 1 58 16 16 40 15 55-2l99-107 180 263c13 18 37 22 54 9z"/>
<glyph glyph-name="sports-car" unicode="&#61;" d="M510 325c-3 3-6 5-10 5l-50 0c-13 32-29 64-47 76-63 41-230 41-293 0-19-12-35-44-47-76l-50 0c-4 0-8-2-10-5-3-3-4-7-3-11l8-36c1-6 6-10 13-10l14 0c-14-17-21-38-21-58 0-26 10-49 27-66 1 0 1 0 1 0l0-50c0-11 9-20 20-20l46 0c11 0 19 9 19 20l0 20 258 0 0-20c0-11 9-20 20-20l46 0c11 0 20 9 20 20l0 49c19 17 28 41 28 65 0 21-7 43-23 60l16 0c6 0 12 4 13 10l7 36c1 4 0 8-2 11z m-379 48c51 33 200 33 250 0 10-6 23-32 34-64l-318 0c12 32 24 58 34 64z m-59-168c0 21 18 38 39 38 22 0 39-17 39-38 0-22-17-39-39-39-21 0-39 17-39 39z m330-39c-21 0-39 17-39 39 0 21 18 38 39 38 22 0 39-17 39-38 0-22-17-39-39-39z"/>
<glyph glyph-name="arrow-down-type-4" unicode="&#62;" d="M77 358c3 0 6-1 9-3l170-171 170 171c5 5 13 5 18 0 5-5 5-13 0-18l-179-180c-5-5-13-5-18 0l-179 180c-5 5-5 13 0 18 2 2 6 3 9 3z"/>
<glyph glyph-name="arrow-up-type-4" unicode="&#57394;" d="M435 154c-3 0-6 1-9 3l-170 170-170-170c-5-5-13-5-18 0-5 5-5 13 0 18l179 180c5 5 13 5 18 0l179-180c5-5 5-13 0-18-2-2-6-3-9-3z"/>
<glyph glyph-name="checkbox-active" unicode="&#57417;" d="M232 141l176 175c3 4 5 8 5 13 0 5-2 9-5 13l-29 29c-4 4-8 6-13 6-5 0-10-2-13-6l-134-133-60 60c-3 4-8 5-13 5-5 0-9-1-13-5l-29-29c-3-4-5-8-5-13 0-5 2-9 5-13l103-102c3-4 7-6 12-6 5 0 10 2 13 6z m243 252l0-274c0-23-8-42-24-58-16-16-35-24-58-24l-274 0c-23 0-42 8-58 24-16 16-24 35-24 58l0 274c0 23 8 42 24 58 16 16 35 24 58 24l274 0c23 0 42-8 58-24 16-16 24-35 24-58z"/>
<glyph glyph-name="checkbox" unicode="&#57418;" d="M375 439l-238 0c-12 0-23-5-32-14-9-9-14-19-14-32l0-238c0-12 5-23 14-32 9-9 20-13 32-13l238 0c12 0 23 4 32 13 9 9 14 20 14 32l0 238c0 13-5 23-14 32-9 9-20 14-32 14z m82-46l0-238c0-22-8-42-24-58-16-16-35-24-58-24l-238 0c-23 0-42 8-58 24-16 16-24 36-24 58l0 238c0 23 8 42 24 58 16 16 35 24 58 24l238 0c23 0 42-8 58-24 16-16 24-35 24-58z"/>
<glyph glyph-name="tag" unicode="&#63;" d="M165 384c0 10-4 19-11 26-7 7-16 11-26 11-10 0-19-4-26-11-7-7-11-16-11-26 0-10 4-19 11-26 7-7 16-11 26-11 10 0 19 4 26 11 7 7 11 16 11 26z m304-165c0-10-3-18-10-25l-140-141c-8-7-17-10-26-10-11 0-19 3-26 10l-204 205c-8 7-14 16-19 29-5 12-7 23-7 33l0 119c0 10 3 18 10 26 8 7 16 10 26 10l119 0c10 0 21-2 33-7 13-5 22-11 30-19l204-204c7-7 10-16 10-26z"/>
<glyph glyph-name="medal-rank-star" unicode="&#57422;" d="M256 512c-141 0-256-115-256-256 0-141 115-256 256-256 141 0 256 115 256 256 0 141-115 256-256 256m119-421l-119 86-119-86 46 139-119 86 147 0 45 140 45-140 147 0-119-86z"/>
<glyph glyph-name="check-mark" unicode="&#57423;" d="M512 387l-319-319c-2-3-7-3-10 0l-181 181c-3 3-3 8 0 10l44 44c3 3 7 3 10 0l132-132 270 270c3 3 8 3 10 0l44-44c3-2 3-7 0-10z"/>
<glyph glyph-name="error-round" unicode="&#57432;" d="M256 475c40 0 77-9 110-29 34-20 60-46 80-80 20-33 29-70 29-110 0-40-9-77-29-110-20-34-46-60-80-80-33-20-70-29-110-29-40 0-77 9-110 29-34 20-60 46-80 80-20 33-29 70-29 110 0 40 9 77 29 110 20 34 46 60 80 80 33 20 70 29 110 29z m37-356l0 54c0 3-1 5-3 7-2 2-4 3-6 3l-55 0c-3 0-5-1-7-3-2-2-3-4-3-7l0-54c0-2 1-5 3-6 2-2 4-3 7-3l55 0c2 0 4 1 6 2 2 2 3 4 3 7z m-1 98l5 178c0 2-1 4-3 5-2 2-4 2-7 2l-62 0c-3 0-5 0-7-2-2-1-3-3-3-5l5-178c0-1 1-3 3-5 1-1 4-2 6-2l53 0c3 0 5 1 7 2 2 2 3 4 3 5z"/>
<glyph glyph-name="box-arrow-down-o" unicode="&#57433;" d="M128 320l0-32 128-128 0 32z m128-160l0 32 128 128 0-32z m192 288l0-384-384 0 0 384 384 0m32 32l-448 0 0-448 448 0z"/>
<glyph glyph-name="box-arrow-left-o" unicode="&#57434;" d="M320 384l-32 0-128-128 32 0z m-160-128l32 0 128-128-32 0z m288 192l0-384-384 0 0 384 384 0m32 32l-448 0 0-448 448 0z"/>
<glyph glyph-name="box-arrow-right-o" unicode="&#57435;" d="M192 128l32 0 128 128-32 0z m160 128l-32 0-128 128 32 0z m96 192l0-384-384 0 0 384 384 0m32 32l-448 0 0-448 448 0z"/>
<glyph glyph-name="box-arrow-up-o" unicode="&#57436;" d="M384 192l0 32-128 128 0-32z m-128 160l0-32-128-128 0 32z m192 96l0-384-384 0 0 384 384 0m32 32l-448 0 0-448 448 0z"/>
<glyph glyph-name="circle-arrow-down-o" unicode="&#57437;" d="M256 448c106 0 192-86 192-192 0-106-86-192-192-192-106 0-192 86-192 192 0 106 86 192 192 192m0 32c-123 0-224-101-224-224 0-123 101-224 224-224 123 0 224 101 224 224 0 123-101 224-224 224z m-86-160l91-110 92 110 42 0-134-160-133 160z"/>
<glyph glyph-name="circle-arrow-left-o" unicode="&#57438;" d="M256 448c106 0 192-86 192-192 0-106-86-192-192-192-106 0-192 86-192 192 0 106 86 192 192 192m0 32c-123 0-224-101-224-224 0-123 101-224 224-224 123 0 224 101 224 224 0 123-101 224-224 224z m64-138l-110-91 110-92 0-42-160 134 160 133z"/>
<glyph glyph-name="circle-arrow-right-o" unicode="&#57442;" d="M256 448c106 0 192-86 192-192 0-106-86-192-192-192-106 0-192 86-192 192 0 106 86 192 192 192m0 32c-123 0-224-101-224-224 0-123 101-224 224-224 123 0 224 101 224 224 0 123-101 224-224 224z m-64-310l110 91-110 92 0 42 160-134-160-133z"/>
<glyph glyph-name="circle-arrow-up-o" unicode="&#57445;" d="M256 448c106 0 192-86 192-192 0-106-86-192-192-192-106 0-192 86-192 192 0 106 86 192 192 192m0 32c-123 0-224-101-224-224 0-123 101-224 224-224 123 0 224 101 224 224 0 123-101 224-224 224z m86-288l-91 110-92-110-42 0 134 160 133-160z"/>
<glyph glyph-name="caret-down" unicode="&#57446;" d="M402 311c0-5-2-9-5-13l-128-128c-4-4-8-5-13-5-5 0-9 1-13 5l-128 128c-3 4-5 8-5 13 0 5 2 9 5 13 4 3 8 5 13 5l256 0c5 0 9-2 13-5 3-4 5-8 5-13z"/>
<glyph glyph-name="caret-left" unicode="&#57447;" d="M347 384l0-256c0-5-1-9-5-13-4-3-8-5-13-5-5 0-9 2-13 5l-128 128c-3 4-5 8-5 13 0 5 2 9 5 13l128 128c4 3 8 5 13 5 5 0 9-2 13-5 4-4 5-8 5-13z"/>
<glyph glyph-name="caret-right" unicode="&#57448;" d="M329 256c0-5-2-9-5-13l-128-128c-4-3-8-5-13-5-5 0-9 2-13 5-4 4-5 8-5 13l0 256c0 5 1 9 5 13 4 3 8 5 13 5 5 0 9-2 13-5l128-128c3-4 5-8 5-13z"/>
<glyph glyph-name="caret-up" unicode="&#57449;" d="M402 165c0-5-2-10-5-13-4-4-8-6-13-6l-256 0c-5 0-9 2-13 6-3 3-5 8-5 13 0 5 2 9 5 12l128 128c4 4 8 6 13 6 5 0 9-2 13-6l128-128c3-3 5-7 5-12z"/>
<glyph glyph-name="angle-down" unicode="&#57450;" d="M399 302c0-3-1-5-3-7l-133-133c-2-2-5-3-7-3-2 0-5 1-7 3l-133 133c-2 2-3 4-3 7 0 2 1 4 3 6l15 15c1 1 4 2 6 2 3 0 5-1 7-2l112-113 112 113c2 1 4 2 7 2 2 0 5-1 6-2l15-15c2-2 3-4 3-6z"/>
<glyph glyph-name="angle-left" unicode="&#57451;" d="M344 357c0-3-1-5-3-7l-112-112 112-113c2-1 3-4 3-6 0-3-1-5-3-7l-14-14c-2-2-5-3-7-3-2 0-5 1-7 3l-133 133c-2 2-3 4-3 7 0 2 1 4 3 6l133 133c2 2 5 3 7 3 2 0 5-1 7-3l14-14c2-2 3-4 3-6z"/>
<glyph glyph-name="angle-right" unicode="&#57452;" d="M335 238c0-3-1-5-3-7l-133-133c-2-2-5-3-7-3-2 0-5 1-7 3l-14 14c-2 2-3 4-3 7 0 2 1 5 3 6l112 113-112 112c-2 2-3 4-3 7 0 2 1 4 3 6l14 14c2 2 5 3 7 3 2 0 5-1 7-3l133-133c2-2 3-4 3-6z"/>
<glyph glyph-name="angle-up" unicode="&#57453;" d="M399 174c0-3-1-5-3-7l-15-14c-1-2-4-3-6-3-3 0-5 1-7 3l-112 112-112-112c-2-2-4-3-7-3-2 0-5 1-6 3l-15 14c-2 2-3 4-3 7 0 2 1 4 3 6l133 133c2 2 5 3 7 3 2 0 5-1 7-3l133-133c2-2 3-4 3-6z"/>
<glyph glyph-name="calendar-2" unicode="&#57454;" d="M125 390l7 0c12 0 21 9 21 20l0 77c0 11-9 20-21 20l-7 0c-11 0-20-9-20-20l0-77c0-11 9-20 20-20z m259 1l7 0c11 0 20 9 20 20l0 76c0 11-9 20-20 20l-7 0c-12 0-21-9-21-20l0-76c0-11 9-20 21-20z m95 75l-52 0 0-60c0-21-16-32-36-32l-7 0c-21 0-37 17-37 37l0 55-178 0 0-56c0-20-16-36-37-36l-7 0c-20 0-36 16-36 36l0 56-56 0c-18 0-33-15-33-33l0-396c0-18 15-32 33-32l446 0c18 0 33 14 33 32l0 396c0 18-15 33-33 33z m0-429l-446 0 0 299 446 0 0-299c0 0 0 0 0 0z m-206 199l59 0c2 0 4 2 4 4l0 51c0 3-2 4-4 4l-59 0c-2 0-4-1-4-4l0-51c0-2 2-4 4-4z m96 0l59 0c2 0 4 2 4 4l0 51c0 3-2 4-4 4l-59 0c-2 0-4-1-4-4l0-51c0-2 2-4 4-4z m-288-83l59 0c2 0 4 2 4 4l0 51c0 2-2 4-4 4l-59 0c-2 0-4-2-4-4l0-51c0-2 2-4 4-4z m96 0l59 0c2 0 4 2 4 4l0 51c0 2-2 4-4 4l-59 0c-2 0-4-2-4-4l0-51c0-2 2-4 4-4z m96 0l59 0c2 0 4 2 4 4l0 51c0 2-2 4-4 4l-59 0c-2 0-4-2-4-4l0-51c0-2 2-4 4-4z m96 0l59 0c2 0 4 2 4 4l0 51c0 2-2 4-4 4l-59 0c-2 0-4-2-4-4l0-51c0-2 2-4 4-4z m-229-24l-59 0c-2 0-4-2-4-5l0-51c0-2 2-4 4-4l59 0c2 0 4 2 4 4l0 51c0 3-2 5-4 5z m96 0l-59 0c-2 0-4-2-4-5l0-51c0-2 2-4 4-4l59 0c2 0 4 2 4 4l0 51c0 3-2 5-4 5z m96 0l-59 0c-2 0-4-2-4-5l0-51c0-2 2-4 4-4l59 0c2 0 4 2 4 4l0 51c0 3-2 5-4 5z m96 0l-59 0c-2 0-4-2-4-5l0-51c0-2 2-4 4-4l59 0c2 0 4 2 4 4l0 51c0 3-2 5-4 5z"/>
<glyph glyph-name="arrow-circle-down-o" unicode="&#57455;" d="M256 512c-141 0-256-115-256-256 0-141 115-256 256-256 141 0 256 115 256 256 0 141-115 256-256 256z m0-480c-124 0-224 100-224 224 0 124 100 224 224 224 124 0 224-100 224-224 0-124-100-224-224-224z m101 202l-85-83 0 249c0 9-7 16-16 16-9 0-16-7-16-16l0-249-85 83c-6 6-16 6-22 0-7-7-7-17 0-23l112-110c3-3 7-5 11-5 4 0 8 2 11 5l112 110c7 6 7 16 0 23-6 6-16 6-22 0z"/>
<glyph glyph-name="arrow-circle-left-o" unicode="&#57456;" d="M256 512c-141 0-256-115-256-256 0-141 115-256 256-256 141 0 256 115 256 256 0 141-115 256-256 256z m0-480c-124 0-224 100-224 224 0 124 100 224 224 224 124 0 224-100 224-224 0-124-100-224-224-224z m144 240l-249 0 83 85c6 6 6 16 0 23-7 6-17 6-23 0l-110-112c-3-3-5-8-5-12 0-4 2-8 5-11l110-112c6-7 16-7 23 0 6 6 6 16 0 23l-84 84 250 0c9 0 16 7 16 16 0 9-7 16-16 16z"/>
<glyph glyph-name="arrow-circle-right-o" unicode="&#57457;" d="M256 512c-141 0-256-115-256-256 0-141 115-256 256-256 141 0 256 115 256 256 0 141-115 256-256 256z m0-480c-124 0-224 100-224 224 0 124 100 224 224 224 124 0 224-100 224-224 0-124-100-224-224-224z m155 235l-110 112c-6 7-16 7-23 0-6-6-6-16 0-22l84-85-250 0c-9 0-16-7-16-16 0-9 7-16 16-16l249 0-83-85c-6-6-6-16 0-22 7-7 17-7 23 0l110 112c3 3 5 7 5 11 0 4-2 8-5 11z"/>
<glyph glyph-name="arrow-circle-up-o" unicode="&#57458;" d="M256 512c-141 0-256-115-256-256 0-141 115-256 256-256 141 0 256 115 256 256 0 141-115 256-256 256z m0-480c-124 0-224 100-224 224 0 124 100 224 224 224 124 0 224-100 224-224 0-124-100-224-224-224z m11 379c-3 3-7 5-11 5-4 0-8-2-11-5l-112-110c-7-6-7-16 0-23 6-6 16-6 22 0l85 84 0-250c0-9 7-16 16-16 9 0 16 7 16 16l0 249 85-83c6-6 16-6 22 0 7 7 7 17 0 23z"/>
<glyph glyph-name="arrow-top-type-3-1" unicode="&#102;" d="M30 220c-6 6-6 16 0 21l215 215c6 6 16 6 22 0l215-215c6-6 6-16 0-21-3-3-7-5-11-5-4 0-8 2-11 5l-204 204-204-204c-3-3-7-5-11-5-4 0-8 2-11 5z m237 72c-6 6-16 6-22 0l-215-215c-6-6-6-16 0-21 3-3 7-5 11-5 4 0 8 2 11 5l204 204 204-204c3-3 7-5 11-5 4 0 8 2 11 5 6 6 6 16 0 21z"/>
<glyph glyph-name="glass" unicode="&#101;" d="M485 459c0-7-4-14-12-22l-180-181 0-219 91 0c5 0 9-2 13-6 3-3 5-8 5-13 0-5-2-9-5-13-4-3-8-5-13-5l-256 0c-5 0-9 2-13 5-3 4-5 8-5 13 0 5 2 10 5 13 4 4 8 6 13 6l91 0 0 219-180 181c-8 8-12 15-12 22 0 4 1 8 5 10 3 3 7 5 11 5 3 1 7 1 12 1l402 0c5 0 9 0 12-1 4 0 8-2 11-5 4-2 5-6 5-10z"/>
<glyph glyph-name="music" unicode="&#76;" d="M475 448l0-320c0-10-3-18-9-25-7-8-15-14-25-18-10-4-20-7-29-9-10-2-19-3-28-3-9 0-18 1-28 3-9 2-19 5-29 9-10 4-18 10-25 18-6 7-9 15-9 25 0 10 3 18 9 25 7 8 15 14 25 18 10 4 20 7 29 9 10 2 19 3 28 3 20 0 38-4 55-11l0 153-220-68 0-202c0-10-3-18-9-26-7-7-15-13-25-17-10-4-20-7-29-9-10-2-19-3-28-3-9 0-18 1-28 3-9 2-19 5-29 9-10 4-18 10-25 17-6 8-9 16-9 26 0 9 3 18 9 25 7 8 15 13 25 18 10 4 20 7 29 9 10 2 19 3 28 3 20 0 38-4 55-11l0 276c0 6 2 11 5 16 4 5 9 8 14 10l238 73c2 1 5 1 8 1 8 0 14-2 19-8 6-5 8-11 8-19z"/>
<glyph glyph-name="heart" unicode="&#78;" d="M256 37c-5 0-9 1-13 5l-178 172c-2 1-4 4-8 7-3 4-8 10-16 19-7 9-13 18-19 28-6 9-11 21-15 34-5 14-7 27-7 40 0 42 12 74 36 98 24 24 58 35 101 35 11 0 23-2 36-6 12-4 23-9 34-16 11-7 20-14 27-20 8-6 15-12 22-19 7 7 14 13 22 19 7 6 16 13 27 20 11 7 22 12 34 16 13 4 25 6 36 6 43 0 77-11 101-35 24-24 36-56 36-98 0-42-22-85-65-129l-178-171c-4-4-8-5-13-5z"/>
<glyph glyph-name="heart-line" unicode="&#57404;" d="M475 342c0 15-2 29-6 41-4 11-9 21-15 28-7 7-15 12-24 17-9 4-18 7-27 9-8 1-18 2-28 2-9 0-20-3-32-7-11-5-22-11-31-19-10-7-18-14-25-20-7-7-12-13-17-18-3-4-8-6-14-6-6 0-11 2-14 6-5 5-10 11-17 18-7 6-15 13-25 20-9 8-20 14-31 19-12 4-23 7-32 7-10 0-20-1-28-2-9-2-18-5-27-9-9-5-17-10-24-17-6-7-11-17-15-28-4-12-6-26-6-41 0-32 17-66 53-102l166-160 166 160c36 36 53 70 53 102z m37 0c0-42-22-85-65-129l-178-171c-4-4-8-5-13-5-5 0-9 1-13 5l-178 172c-2 1-4 4-8 7-3 4-8 10-16 19-7 9-13 18-19 28-6 9-11 21-15 34-5 14-7 27-7 40 0 42 12 74 36 98 24 24 58 35 101 35 11 0 23-2 36-6 12-4 23-9 34-16 11-7 20-14 27-20 8-6 15-12 22-19 7 7 14 13 22 19 7 6 16 13 27 20 11 7 22 12 34 16 13 4 25 6 36 6 43 0 77-11 101-35 24-24 36-56 36-98z"/>
<glyph glyph-name="star-o" unicode="&#57459;" d="M343 225l88 85-121 18-54 109-54-109-121-18 88-85-21-120 108 57 108-57z m151 102c0-4-3-9-8-14l-103-101 24-143c0-1 0-3 0-5 0-10-3-15-11-15-4 0-8 2-12 4l-128 67-128-67c-4-2-8-4-12-4-4 0-7 2-9 5-2 2-3 6-3 10 0 1 0 3 1 5l24 143-104 101c-4 6-7 10-7 14 0 7 6 12 16 13l144 21 64 130c4 8 8 12 14 12 6 0 10-4 14-12l64-130 144-21c10-1 16-6 16-13z"/>
<glyph glyph-name="star" unicode="&#57460;" d="M494 327c0-4-3-9-8-14l-103-101 24-143c0-1 0-3 0-5 0-4-1-8-3-10-2-3-4-5-8-5-4 0-8 2-12 4l-128 67-128-67c-4-2-8-4-12-4-4 0-7 2-9 5-2 2-3 6-3 10 0 1 0 3 1 5l24 143-104 101c-4 6-7 10-7 14 0 7 6 12 16 13l144 21 64 130c4 8 8 12 14 12 6 0 10-4 14-12l64-130 144-21c10-1 16-6 16-13z"/>
<glyph glyph-name="user" unicode="&#57367;" d="M317 179c-2 16-1 28-1 43 7 4 21 29 23 50 6 1 15 6 18 29 1 12-5 19-8 21 9 29 29 118-37 127-7 12-24 18-47 18-90-2-101-68-81-145-4-2-10-9-8-21 2-23 12-28 18-29 2-21 16-46 23-50 0-15 1-27-1-43-18-48-139-35-144-128l389 0c-6 93-126 80-144 128z"/>
<glyph glyph-name="road" unicode="&#120;" d="M299 227l0 2-7 91c0 2-1 5-3 6-2 2-4 3-6 3l-54 0c-2 0-4-1-6-3-2-1-3-4-3-6l-7-91 0-2c0-2 0-4 2-5 2-2 4-3 6-3l70 0c2 0 4 1 6 3 2 1 2 3 2 5z m217-133c0-14-4-21-13-21l-201 0c2 0 4 1 6 3 2 2 2 4 2 6l-5 73c-1 3-2 5-4 7-1 2-4 3-6 3l-78 0c-2 0-5-1-6-3-2-2-3-4-4-7l-5-73c0-2 0-4 2-6 2-2 4-3 6-3l-201 0c-9 0-13 7-13 21 0 10 2 21 7 33l120 298c1 4 4 7 7 10 3 3 7 4 11 4l97 0c-3 0-5-1-7-3-2-2-3-4-3-6l-4-55c0-3 0-5 2-7 2-1 4-2 6-2l48 0c2 0 4 1 6 2 2 2 2 4 2 7l-4 55c0 2-1 4-3 6-2 2-4 3-7 3l97 0c4 0 8-1 11-4 3-3 6-6 7-10l120-298c5-12 7-23 7-33z"/>
<glyph glyph-name="lock" unicode="&#57461;" d="M183 293l146 0 0 54c0 21-7 38-21 52-15 14-32 22-52 22-20 0-37-8-52-22-14-14-21-31-21-52z m238-28l0-164c0-8-3-15-8-20-6-5-12-8-20-8l-274 0c-8 0-14 3-20 8-5 5-8 12-8 20l0 164c0 8 3 14 8 20 6 5 12 8 20 8l9 0 0 54c0 35 13 66 38 91 25 25 55 37 90 37 35 0 65-12 90-37 25-25 38-56 38-91l0-54 9 0c8 0 14-3 20-8 5-6 8-12 8-20z"/>
<glyph glyph-name="unlock" unicode="&#57462;" d="M494 347l0-73c0-5-2-9-6-13-3-3-8-5-13-5l-18 0c-5 0-9 2-13 5-3 4-5 8-5 13l0 73c0 21-7 38-22 52-14 14-31 22-51 22-20 0-38-8-52-22-14-14-21-31-21-52l0-54 27 0c8 0 14-3 19-8 6-6 8-12 8-20l0-164c0-8-2-15-8-20-5-5-11-8-19-8l-274 0c-8 0-14 3-20 8-5 5-8 12-8 20l0 164c0 8 3 14 8 20 6 5 12 8 20 8l192 0 0 54c0 36 12 66 37 91 25 25 55 37 91 37 35 0 65-12 90-37 25-25 38-55 38-91z"/>
<glyph glyph-name="tags" unicode="&#57463;" d="M110 384c0 10-4 19-11 26-7 7-16 11-26 11-10 0-19-4-26-11-7-7-10-16-10-26 0-10 3-19 10-26 7-7 16-11 26-11 10 0 19 4 26 11 7 7 11 16 11 26z m305-165c0-10-4-18-11-25l-140-141c-8-7-16-10-26-10-10 0-19 3-26 10l-204 205c-8 7-14 16-19 29-5 12-7 23-7 33l0 119c0 10 3 18 11 26 7 7 15 10 25 10l119 0c10 0 21-2 34-7 12-5 21-11 29-19l204-204c7-7 11-16 11-26z m109 0c0-10-3-18-10-25l-141-141c-7-7-16-10-26-10-6 0-12 1-16 4-5 2-10 7-16 12l135 135c7 7 10 15 10 25 0 10-3 19-10 26l-205 204c-7 8-17 14-29 19-12 5-23 7-33 7l64 0c10 0 21-2 33-7 12-5 22-11 29-19l205-204c7-7 10-16 10-26z"/>
<glyph glyph-name="bold" unicode="&#57466;" d="M213 77c15-6 28-9 40-9 72 0 108 32 108 96 0 22-4 39-12 51-5 9-11 16-17 22-7 5-13 10-20 13-6 3-14 5-23 7-9 2-17 3-24 3-7 0-16 1-27 1-14 0-23-1-29-3 0-10 0-26 0-46 0-20 0-35 0-45 0-1 0-8 0-19 0-11 0-21 0-28 0-7 0-15 1-24 1-8 2-15 3-19z m-4 214c8-2 19-2 32-2 15 0 29 1 40 3 12 3 23 7 32 13 9 6 16 15 21 26 5 11 7 24 7 40 0 13-2 25-8 35-5 10-13 18-22 24-10 5-20 9-31 12-11 3-23 4-36 4-9 0-22-1-37-4 0-9 1-24 1-43 1-19 1-34 1-43 0-5 0-13 0-23 0-10 0-18 0-23 0-8 0-15 0-19z m-154-254l0 26c3 1 11 3 25 5 13 2 23 5 30 8 1 2 3 5 4 7 1 3 1 6 2 10 1 4 1 7 2 9 0 3 0 7 0 11 1 4 1 8 2 10l0 18c0 187-2 285-6 293-1 2-3 3-7 4-3 2-7 3-12 4-5 0-10 1-15 2-4 0-9 0-13 1-5 0-8 1-9 1l-1 23c18 1 51 2 97 4 46 2 81 2 106 2 5 0 11 0 20-1 9-1 15-1 19-1 14 0 27-2 39-4 13-3 25-7 37-12 12-6 22-12 31-20 9-8 16-18 21-30 5-12 8-25 8-40 0-9-2-19-5-27-3-8-7-15-11-20-4-6-10-11-18-17-8-5-15-10-21-13-6-3-14-7-24-11 29-7 54-20 73-38 20-19 29-43 29-71 0-19-3-36-10-52-6-15-15-27-26-37-11-10-25-18-40-24-15-7-30-11-46-14-16-3-33-4-51-4-8 0-21 0-37 1-17 0-30 1-38 1-20 0-50-1-88-4-38-2-60-3-66-3z"/>
<glyph glyph-name="italic" unicode="&#57467;" d="M110 37l5 24c1 1 8 3 23 7 14 3 25 7 32 10 5 7 9 17 11 29 1 1 7 29 18 83 12 53 23 105 33 155 10 50 15 78 15 85l0 7c-5 2-10 4-16 5-6 1-12 2-20 2-7 1-13 1-16 2l5 29c6 0 18-1 34-1 17-1 31-2 43-2 12-1 23-1 34-1 10 0 19 0 29 1 9 0 21 1 34 2 14 0 23 1 28 1-1-7-2-15-5-25-6-2-16-5-29-8-14-4-24-7-31-10-2-3-3-7-4-12-1-4-2-8-3-11 0-3-1-8-2-13-1-6-1-10-2-12-5-28-13-68-25-120-11-52-19-86-22-102 0-1-1-7-4-16-2-10-4-18-5-26-2-8-4-16-5-24-1-8-2-13-2-16l1-5c3-1 21-4 53-9-1-9-3-18-5-29-2 0-5 0-9 0-4 0-7 0-10 0-5 0-13 1-24 2-11 2-20 3-25 3-26 1-46 1-59 1-10 0-23-1-41-3-17-1-29-2-34-3z"/>
<glyph glyph-name="align-center" unicode="&#57468;" d="M512 128l0-37c0-5-2-9-5-12-4-4-8-6-13-6l-476 0c-5 0-9 2-13 6-3 3-5 7-5 12l0 37c0 5 2 9 5 13 4 3 8 5 13 5l476 0c5 0 9-2 13-5 3-4 5-8 5-13z m-110 110l0-37c0-5-2-9-5-13-4-3-8-5-13-5l-256 0c-5 0-9 2-13 5-3 4-5 8-5 13l0 37c0 5 2 9 5 13 4 3 8 5 13 5l256 0c5 0 9-2 13-5 3-4 5-8 5-13z m73 109l0-36c0-5-1-9-5-13-4-4-8-5-13-5l-402 0c-5 0-9 1-13 5-4 4-5 8-5 13l0 36c0 5 1 10 5 13 4 4 8 6 13 6l402 0c5 0 9-2 13-6 4-3 5-8 5-13z m-109 110l0-36c0-5-2-10-6-13-3-4-8-6-13-6l-182 0c-5 0-10 2-13 6-4 3-6 8-6 13l0 36c0 5 2 9 6 13 3 4 8 5 13 5l182 0c5 0 10-1 13-5 4-4 6-8 6-13z"/>
<glyph glyph-name="align-justify" unicode="&#57469;" d="M512 128l0-37c0-5-2-9-5-12-4-4-8-6-13-6l-476 0c-5 0-9 2-13 6-3 3-5 7-5 12l0 37c0 5 2 9 5 13 4 3 8 5 13 5l476 0c5 0 9-2 13-5 3-4 5-8 5-13z m0 110l0-37c0-5-2-9-5-13-4-3-8-5-13-5l-476 0c-5 0-9 2-13 5-3 4-5 8-5 13l0 37c0 5 2 9 5 13 4 3 8 5 13 5l476 0c5 0 9-2 13-5 3-4 5-8 5-13z m0 109l0-36c0-5-2-9-5-13-4-4-8-5-13-5l-476 0c-5 0-9 1-13 5-3 4-5 8-5 13l0 36c0 5 2 10 5 13 4 4 8 6 13 6l476 0c5 0 9-2 13-6 3-3 5-8 5-13z m0 110l0-36c0-5-2-10-5-13-4-4-8-6-13-6l-476 0c-5 0-9 2-13 6-3 3-5 8-5 13l0 36c0 5 2 9 5 13 4 4 8 5 13 5l476 0c5 0 9-1 13-5 3-4 5-8 5-13z"/>
<glyph glyph-name="align-left" unicode="&#57470;" d="M512 128l0-37c0-5-2-9-5-12-4-4-8-6-13-6l-476 0c-5 0-9 2-13 6-3 3-5 7-5 12l0 37c0 5 2 9 5 13 4 3 8 5 13 5l476 0c5 0 9-2 13-5 3-4 5-8 5-13z m-110 110l0-37c0-5-2-9-5-13-4-3-8-5-13-5l-366 0c-5 0-9 2-13 5-3 4-5 8-5 13l0 37c0 5 2 9 5 13 4 3 8 5 13 5l366 0c5 0 9-2 13-5 3-4 5-8 5-13z m73 109l0-36c0-5-1-9-5-13-4-4-8-5-13-5l-439 0c-5 0-9 1-13 5-3 4-5 8-5 13l0 36c0 5 2 10 5 13 4 4 8 6 13 6l439 0c5 0 9-2 13-6 4-3 5-8 5-13z m-109 110l0-36c0-5-2-10-6-13-3-4-8-6-13-6l-329 0c-5 0-9 2-13 6-3 3-5 8-5 13l0 36c0 5 2 9 5 13 4 4 8 5 13 5l329 0c5 0 10-1 13-5 4-4 6-8 6-13z"/>
<glyph glyph-name="align-right" unicode="&#57471;" d="M512 128l0-37c0-5-2-9-5-12-4-4-8-6-13-6l-476 0c-5 0-9 2-13 6-3 3-5 7-5 12l0 37c0 5 2 9 5 13 4 3 8 5 13 5l476 0c5 0 9-2 13-5 3-4 5-8 5-13z m0 110l0-37c0-5-2-9-5-13-4-3-8-5-13-5l-366 0c-5 0-9 2-13 5-3 4-5 8-5 13l0 37c0 5 2 9 5 13 4 3 8 5 13 5l366 0c5 0 9-2 13-5 3-4 5-8 5-13z m0 109l0-36c0-5-2-9-5-13-4-4-8-5-13-5l-439 0c-5 0-9 1-13 5-4 4-5 8-5 13l0 36c0 5 1 10 5 13 4 4 8 6 13 6l439 0c5 0 9-2 13-6 3-3 5-8 5-13z m0 110l0-36c0-5-2-10-5-13-4-4-8-6-13-6l-329 0c-5 0-10 2-13 6-4 3-6 8-6 13l0 36c0 5 2 9 6 13 3 4 8 5 13 5l329 0c5 0 9-1 13-5 3-4 5-8 5-13z"/>
<glyph glyph-name="tint" unicode="&#57472;" d="M256 183c0 7-2 13-6 20 0 0-1 2-4 6-3 4-5 8-7 11-3 3-5 7-8 12-2 6-4 10-6 15 0 3-2 4-6 4-3 0-5-1-6-4-1-5-3-9-6-15-2-5-5-9-7-12-2-3-4-7-7-11-3-4-4-6-4-6-4-7-6-13-6-20 0-10 3-19 11-26 7-7 15-11 25-11 11 0 19 4 26 11 7 7 11 16 11 26z m146 36c0-40-14-74-43-103-28-29-63-43-103-43-40 0-75 14-103 43-29 29-43 63-43 103 0 28 7 54 23 79 1 2 7 10 18 26 10 15 20 30 29 43 8 13 18 30 28 51 10 21 18 40 24 57 1 6 5 11 9 14 5 3 10 5 15 5 5 0 10-2 15-5 5-3 8-8 9-14 6-17 14-36 24-57 10-21 20-38 28-51 9-13 19-28 29-43 11-16 17-24 18-26 16-24 23-50 23-79z"/>
<glyph glyph-name="fast-backward" unicode="&#57474;" d="M499 472c4 3 7 5 9 3 3-1 4-4 4-9l0-420c0-5-1-8-4-9-2-2-5 0-9 3l-203 203c-1 2-3 4-3 6l0-203c0-5-2-8-4-9-3-2-6 0-9 3l-203 203c-2 2-3 4-4 6l0-194c0-5-2-9-5-13-4-4-8-5-13-5l-37 0c-5 0-9 1-13 5-3 4-5 8-5 13l0 402c0 5 2 9 5 13 4 4 8 5 13 5l37 0c5 0 9-1 13-5 3-4 5-8 5-13l0-194c1 3 2 4 4 6l203 203c3 3 6 5 9 3 2-1 4-4 4-9l0-203c0 3 2 4 3 6z"/>
<glyph glyph-name="fast-forward" unicode="&#57475;" d="M13 40c-4-3-7-5-9-3-3 1-4 4-4 9l0 420c0 5 1 8 4 9 2 2 5 0 9-3l203-203c1-2 2-3 3-6l0 203c0 5 2 8 4 9 3 2 6 0 9-3l203-203c2-2 3-3 4-6l0 194c0 5 2 9 5 13 4 4 8 5 13 5l37 0c5 0 9-1 13-5 3-4 5-8 5-13l0-402c0-5-2-9-5-13-4-4-8-5-13-5l-37 0c-5 0-9 1-13 5-3 4-5 8-5 13l0 194c-1-2-2-4-4-6l-203-203c-3-3-6-5-9-3-2 1-4 4-4 9l0 203c-1-2-2-4-3-6z"/>
<glyph glyph-name="step-backward" unicode="&#57476;" d="M389 472c4 3 7 5 10 3 2-1 3-4 3-9l0-420c0-5-1-8-3-9-3-2-6 0-10 3l-202 203c-2 2-3 4-4 6l0-194c0-5-2-9-6-13-3-4-7-5-12-5l-37 0c-5 0-9 1-13 5-3 4-5 8-5 13l0 402c0 5 2 9 5 13 4 4 8 5 13 5l37 0c5 0 9-1 12-5 4-4 6-8 6-13l0-194c1 3 2 4 4 6z"/>
<glyph glyph-name="step-forward" unicode="&#57477;" d="M123 40c-4-3-7-5-10-3-2 1-3 4-3 9l0 420c0 5 1 8 3 9 3 2 6 0 10-3l202-203c2-2 3-3 4-6l0 194c0 5 2 9 6 13 3 4 7 5 12 5l37 0c5 0 9-1 13-5 3-4 5-8 5-13l0-402c0-5-2-9-5-13-4-4-8-5-13-5l-37 0c-5 0-9 1-12 5-4 4-6 8-6 13l0 194c-1-2-2-4-4-6z"/>
<glyph glyph-name="play" unicode="&#57473;" d="M450 247l-379-211c-5-2-8-2-11-1-4 2-5 6-5 11l0 420c0 5 1 9 5 11 3 1 6 1 11-1l379-211c5-3 7-6 7-9 0-3-2-6-7-9z"/>
<glyph glyph-name="stop" unicode="&#57478;" d="M475 457l0-402c0-5-1-9-5-13-4-4-8-5-13-5l-402 0c-5 0-9 1-13 5-4 4-5 8-5 13l0 402c0 5 1 9 5 13 4 4 8 5 13 5l402 0c5 0 9-1 13-5 4-4 5-8 5-13z"/>
<glyph glyph-name="plus-circle" unicode="&#57464;" d="M384 238l0 36c0 5-2 10-5 13-4 4-8 6-13 6l-73 0 0 73c0 5-2 9-6 13-3 3-8 5-13 5l-36 0c-5 0-10-2-13-5-4-4-6-8-6-13l0-73-73 0c-5 0-9-2-13-6-3-3-5-8-5-13l0-36c0-5 2-10 5-13 4-4 8-6 13-6l73 0 0-73c0-5 2-9 6-13 3-3 8-5 13-5l36 0c5 0 10 2 13 5 4 4 6 8 6 13l0 73 73 0c5 0 9 2 13 6 3 3 5 8 5 13z m91 18c0-40-9-77-29-110-20-34-46-60-80-80-33-20-70-29-110-29-40 0-77 9-110 29-34 20-60 46-80 80-20 33-29 70-29 110 0 40 9 77 29 110 20 34 46 60 80 80 33 20 70 29 110 29 40 0 77-9 110-29 34-20 60-46 80-80 20-33 29-70 29-110z"/>
<glyph glyph-name="plus-square" unicode="&#57465;" d="M402 238l0 36c0 5-2 10-5 13-4 4-8 6-13 6l-91 0 0 91c0 5-2 9-6 13-3 3-8 5-13 5l-36 0c-5 0-10-2-13-5-4-4-6-8-6-13l0-91-91 0c-5 0-9-2-13-6-3-3-5-8-5-13l0-36c0-5 2-10 5-13 4-4 8-6 13-6l91 0 0-91c0-5 2-9 6-13 3-3 8-5 13-5l36 0c5 0 10 2 13 5 4 4 6 8 6 13l0 91 91 0c5 0 9 2 13 6 3 3 5 8 5 13z m73 155l0-274c0-23-8-42-24-58-16-16-35-24-58-24l-274 0c-23 0-42 8-58 24-16 16-24 35-24 58l0 274c0 23 8 42 24 58 16 16 35 24 58 24l274 0c23 0 42-8 58-24 16-16 24-35 24-58z"/>
<glyph glyph-name="plus-square-o" unicode="&#57479;" d="M384 283l0-18c0-3-1-5-3-6-1-2-3-3-6-3l-101 0 0-101c0-2-1-4-2-6-2-2-4-3-7-3l-18 0c-3 0-5 1-7 3-1 2-2 4-2 6l0 101-101 0c-3 0-5 1-6 3-2 1-3 3-3 6l0 18c0 3 1 5 3 7 1 2 3 3 6 3l101 0 0 100c0 3 1 5 2 7 2 1 4 2 7 2l18 0c3 0 5-1 7-2 1-2 2-4 2-7l0-100 101 0c3 0 5-1 6-3 2-2 3-4 3-7z m37-128l0 238c0 13-5 23-14 32-9 9-20 14-32 14l-238 0c-12 0-23-5-32-14-9-9-14-19-14-32l0-238c0-12 5-23 14-32 9-9 20-13 32-13l238 0c12 0 23 4 32 13 9 9 14 20 14 32z m36 238l0-238c0-22-8-42-24-58-16-16-35-24-58-24l-238 0c-23 0-42 8-58 24-16 16-24 36-24 58l0 238c0 23 8 42 24 58 16 16 35 24 58 24l238 0c23 0 42-8 58-24 16-16 24-35 24-58z"/>
<glyph glyph-name="minus-circle" unicode="&#57480;" d="M384 238l0 36c0 5-2 10-5 13-4 4-8 6-13 6l-220 0c-5 0-9-2-13-6-3-3-5-8-5-13l0-36c0-5 2-10 5-13 4-4 8-6 13-6l220 0c5 0 9 2 13 6 3 3 5 8 5 13z m91 18c0-40-9-77-29-110-20-34-46-60-80-80-33-20-70-29-110-29-40 0-77 9-110 29-34 20-60 46-80 80-20 33-29 70-29 110 0 40 9 77 29 110 20 34 46 60 80 80 33 20 70 29 110 29 40 0 77-9 110-29 34-20 60-46 80-80 20-33 29-70 29-110z"/>
<glyph glyph-name="minus-square" unicode="&#57481;" d="M402 238l0 36c0 5-2 10-5 13-4 4-8 6-13 6l-256 0c-5 0-9-2-13-6-3-3-5-8-5-13l0-36c0-5 2-10 5-13 4-4 8-6 13-6l256 0c5 0 9 2 13 6 3 3 5 8 5 13z m73 155l0-274c0-23-8-42-24-58-16-16-35-24-58-24l-274 0c-23 0-42 8-58 24-16 16-24 35-24 58l0 274c0 23 8 42 24 58 16 16 35 24 58 24l274 0c23 0 42-8 58-24 16-16 24-35 24-58z"/>
<glyph glyph-name="minus-square-o" unicode="&#57482;" d="M384 283l0-18c0-3-1-5-3-6-1-2-3-3-6-3l-238 0c-3 0-5 1-6 3-2 1-3 3-3 6l0 18c0 3 1 5 3 7 1 2 3 3 6 3l238 0c3 0 5-1 6-3 2-2 3-4 3-7z m37-128l0 238c0 13-5 23-14 32-9 9-20 14-32 14l-238 0c-12 0-23-5-32-14-9-9-14-19-14-32l0-238c0-12 5-23 14-32 9-9 20-13 32-13l238 0c12 0 23 4 32 13 9 9 14 20 14 32z m36 238l0-238c0-22-8-42-24-58-16-16-35-24-58-24l-238 0c-23 0-42 8-58 24-16 16-24 36-24 58l0 238c0 23 8 42 24 58 16 16 35 24 58 24l238 0c23 0 42-8 58-24 16-16 24-35 24-58z"/>
<glyph glyph-name="eye" unicode="&#57483;" d="M475 238c-29 45-65 78-108 101 11-20 17-42 17-65 0-35-13-65-38-90-25-25-55-38-90-38-35 0-65 13-90 38-25 25-38 55-38 90 0 23 6 45 17 65-43-23-79-56-108-101 25-39 57-70 95-94 38-23 79-34 124-34 45 0 86 11 124 34 38 24 70 55 95 94z m-205 109c0 4-2 7-4 10-3 3-6 4-10 4-24 0-44-8-61-25-17-17-26-38-26-62 0-4 1-7 4-9 3-3 6-4 10-4 4 0 7 1 10 4 2 2 4 5 4 9 0 17 5 31 17 42 12 12 26 18 42 18 4 0 7 1 10 4 2 2 4 6 4 9z m242-109c0-7-2-13-6-20-26-44-62-79-107-105-45-27-93-40-143-40-50 0-98 13-143 40-45 26-81 61-107 105-4 7-6 13-6 20 0 6 2 13 6 19 26 44 62 79 107 106 45 26 93 39 143 39 50 0 98-13 143-39 45-27 81-62 107-106 4-6 6-13 6-19z"/>
</font>
</defs>
</svg>
